<svg width="15" height="15" viewBox="0 0 15 15" fill="none" xmlns="http://www.w3.org/2000/svg">
<g clip-path="url(#clip0_244_588)">
<path d="M14.9206 6.13125C14.975 5.97438 15 5.81312 15 5.65375C15 5.1725 14.7625 4.7075 14.3406 4.41563C12.995 3.48312 13.1731 3.7175 12.6663 2.20125C12.4538 1.56813 11.8419 1.14062 11.1512 1.14062H11.1469C9.48875 1.14625 9.77625 1.235 8.43813 0.294375C8.15938 0.098125 7.82937 0 7.5 0C7.17063 0 6.84063 0.098125 6.56125 0.294375C5.21375 1.24125 5.5075 1.14562 3.8525 1.14H3.84812C3.15813 1.14 2.54562 1.56813 2.33437 2.20062C1.82687 3.72062 2.00063 3.48563 0.660625 4.41563C0.2375 4.70875 0 5.17313 0 5.655C0 5.81375 0.02625 5.97438 0.079375 6.13125C0.59875 7.64875 0.5975 7.3575 0.079375 8.86875C0.02625 9.02562 0 9.18563 0 9.345C0 9.82625 0.2375 10.2912 0.660625 10.5844C2.00187 11.5156 1.82812 11.28 2.335 12.7987C2.54625 13.4319 3.15812 13.8594 3.84875 13.8594H3.85313C5.51125 13.8537 5.22375 13.7644 6.56187 14.705C6.84062 14.9012 7.17063 15 7.5 15C7.82937 15 8.15938 14.9012 8.43875 14.7056C9.77687 13.7656 9.48812 13.8544 11.1475 13.86H11.1519C11.8419 13.86 12.4544 13.4319 12.6669 12.7994C13.1737 11.2825 12.995 11.5169 14.3412 10.585C14.7625 10.2919 15 9.82687 15 9.34562C15 9.18688 14.975 9.02562 14.9206 8.86875C14.4012 7.35125 14.4037 7.64188 14.9206 6.13125ZM6.5625 10.4688L3.75 7.74125L4.91125 6.58063L6.5625 8.14625L10.0887 4.53188L11.25 5.6925L6.5625 10.4688Z" fill="#16A374"/>
</g>
<defs>
<clipPath id="clip0_244_588">
<rect width="15" height="15" fill="white"/>
</clipPath>
</defs>
</svg>
