<svg width="70" height="68" viewBox="0 0 70 68" fill="none" xmlns="http://www.w3.org/2000/svg">
<path d="M69.5 34.2061C69.5 52.5708 54.0707 67.4883 35 67.4883C15.9293 67.4883 0.5 52.5708 0.5 34.2061C0.5 15.8413 15.9293 0.923828 35 0.923828C54.0707 0.923828 69.5 15.8413 69.5 34.2061Z" stroke="#FFCC2A"/>
<path d="M49.9506 36.4208L46.7247 35.118C45.1952 34.5013 43.6059 34.026 41.979 33.6989L37.7748 32.9068L38.0561 28.4053C38.1325 26.832 38.0462 25.2554 37.7983 23.6979L37.2863 20.4863C37.1924 19.8914 36.875 19.3482 36.3919 18.9554C35.9089 18.5627 35.2922 18.3467 34.6544 18.3467C34.0165 18.3467 33.3999 18.5627 32.9168 18.9554C32.4338 19.3482 32.1164 19.8914 32.0225 20.4863L31.5044 23.7584C31.2607 25.31 31.1781 26.8804 31.2576 28.4472L31.534 32.8498L27.035 33.6966C25.4081 34.0237 23.8187 34.499 22.2892 35.1157L19.0633 36.4185C18.4771 36.6548 18.0004 37.0818 17.7201 37.6218C17.4398 38.1617 17.3745 38.7786 17.5361 39.3602C17.6971 39.9418 18.0742 40.4496 18.5988 40.7911C19.1233 41.1327 19.7605 41.2853 20.3944 41.2213L23.8189 40.8723C25.4798 40.7047 27.1193 40.3841 28.7139 39.915L31.3168 39.1147L29.5022 56.0705C29.4725 56.3501 29.505 56.6324 29.5976 56.8995C29.6902 57.1666 29.8408 57.4126 30.0399 57.6216C30.239 57.8307 30.4822 57.9983 30.7539 58.1138C31.0256 58.2292 31.3198 58.29 31.6178 58.2922L37.6256 58.3364H37.6428C37.9422 58.3361 38.2383 58.2768 38.5119 58.1621C38.7855 58.0475 39.0306 57.88 39.2314 57.6706C39.4322 57.4612 39.5843 57.2145 39.6779 56.9463C39.7714 56.6781 39.8043 56.3944 39.7745 56.1135L37.9697 39.2008L40.3 39.9173C41.8951 40.3863 43.535 40.707 45.1963 40.8746L48.6208 41.2236C49.2546 41.2876 49.8918 41.135 50.4164 40.7935C50.941 40.4519 51.3181 39.9441 51.4791 39.3625C51.6406 38.7808 51.5752 38.1638 51.2946 37.6238C51.014 37.0839 50.5371 36.6569 49.9506 36.4208ZM35.6407 38.4866H35.6567L37.5515 56.2356L31.7153 56.1938L33.6077 38.4645C32.9467 38.2336 32.3932 37.7903 32.0446 37.2126C31.6961 36.6349 31.5748 35.9597 31.7021 35.306C31.8295 34.6523 32.1972 34.0619 32.7408 33.6386C33.2843 33.2153 33.9687 32.9864 34.6735 32.992C35.3784 32.9977 36.0586 33.2376 36.5944 33.6695C37.1302 34.1014 37.4873 34.6976 37.6028 35.3533C37.7183 36.009 37.5849 36.682 37.226 37.2541C36.8671 37.8262 36.3057 38.2605 35.6407 38.4808V38.4866Z" fill="#FFCC2A"/>
<path d="M12.2202 35.6312C12.2206 30.7409 14.001 25.9988 17.264 22.1975C20.5269 18.3961 25.0746 15.7659 30.1471 14.7463L30.3494 15.9804C30.3792 16.1699 30.4682 16.3467 30.6052 16.4882C30.7422 16.6296 30.9209 16.7293 31.1184 16.7744C31.3158 16.8195 31.5231 16.808 31.7135 16.7414C31.904 16.6747 32.069 16.5559 32.1875 16.4003L34.3303 13.6319C34.4887 13.4255 34.5538 13.1682 34.5113 12.9165C34.4687 12.6648 34.322 12.4394 34.1033 12.2896L31.1722 10.2622C31.0094 10.1497 30.8148 10.0853 30.6131 10.0771C30.4115 10.0689 30.2117 10.1173 30.0392 10.2162C29.8668 10.315 29.7293 10.4599 29.6441 10.6325C29.559 10.8051 29.5301 10.9977 29.5611 11.1857L29.8078 12.6735C26.2608 13.3704 22.9179 14.7894 20.0129 16.8311C17.1079 18.8728 14.7107 21.488 12.989 24.4941C11.2673 27.5001 10.2625 30.8243 10.0449 34.2346C9.82732 37.6448 10.4021 41.0587 11.7292 44.2376L12.9628 46.8944H15.393L13.7893 43.4502C12.7484 40.9604 12.216 38.3075 12.2202 35.6312Z" fill="#FFCC2A"/>
<path d="M59.3603 44.3544L57.9515 43.8112C59.0458 41.1272 59.6049 38.2757 59.6009 35.4002C59.6009 24.2185 51.1666 14.5431 39.546 12.3936L39.1191 14.4489C49.6999 16.4054 57.3767 25.2165 57.3767 35.4002C57.3815 38.0027 56.8798 40.5839 55.8963 43.0156L54.5998 42.5142C54.4132 42.4417 54.2079 42.4231 54.0101 42.4608C53.8122 42.4985 53.6307 42.5907 53.4885 42.7257C53.3463 42.8608 53.2499 43.0326 53.2114 43.2195C53.1729 43.4063 53.1942 43.5997 53.2724 43.7751L54.6775 46.9367C54.7821 47.1715 54.9813 47.3577 55.2313 47.4543C55.4813 47.5509 55.7617 47.5501 56.0111 47.4519L59.3653 46.1375C59.5533 46.0652 59.7142 45.9415 59.8273 45.7824C59.9404 45.6233 60.0005 45.4359 60 45.2444C59.9994 45.0529 59.9383 44.8658 59.8243 44.7073C59.7104 44.5487 59.5488 44.4258 59.3603 44.3544Z" fill="#FFCC2A"/>
</svg>
