<svg width="70" height="69" viewBox="0 0 70 69" fill="none" xmlns="http://www.w3.org/2000/svg">
<path d="M69.5 34.3657C69.5 52.7832 54.0693 67.7412 35 67.7412C15.9307 67.7412 0.5 52.7832 0.5 34.3657C0.5 15.9482 15.9307 0.990234 35 0.990234C54.0693 0.990234 69.5 15.9482 69.5 34.3657Z" stroke="#FFCC2A"/>
<path d="M56 36.7952C56 33.8386 54.5164 31.1091 52.0068 28.899C51.5359 28.4877 51.1842 27.9799 50.982 27.4194C50.7798 26.859 50.7333 26.2629 50.8464 25.6827C50.9877 24.9563 51.0587 24.2204 51.0586 23.483C51.0586 16.1301 44.0965 10.1694 35.5 10.1694C26.9035 10.1694 19.9414 16.1301 19.9414 23.483C19.9413 24.2204 20.0123 24.9563 20.1536 25.6827C20.2667 26.2629 20.2202 26.859 20.018 27.4194C19.8158 27.9799 19.4641 28.4877 18.9932 28.899C16.4836 31.1091 15 33.8386 15 36.7952C15 43.8216 23.381 49.5759 34.0048 50.0717V55.8914H21.9687V58.563H48.5025V55.8914H36.9952V50.0717C47.619 49.5759 56 43.8216 56 36.7952ZM34.0114 50.0702V42.2869L28.707 37.5789L30.8072 35.6805L35.5033 39.8497L40.2011 35.6805L42.2996 37.5789L36.9952 42.2869V50.0702H34.0114Z" fill="#FFCC2A"/>
</svg>
