<svg width="72" height="70" viewBox="0 0 72 70" fill="none" xmlns="http://www.w3.org/2000/svg">
<path d="M36 69.0645C55.5893 69.0645 71.5 53.7323 71.5 34.7822C71.5 15.8321 55.5893 0.5 36 0.5C16.4107 0.5 0.5 15.8321 0.5 34.7822C0.5 53.7323 16.4107 69.0645 36 69.0645Z" stroke="#FFCC2A"/>
<path d="M38.4742 26.9529C39.2223 28.6877 39.8081 30.4314 40.2647 32.2835C40.2863 32.3705 40.3447 32.4448 40.4261 32.4889C40.4768 32.5164 40.5337 32.5303 40.5908 32.5303C40.6253 32.5303 40.6599 32.5252 40.6935 32.5149L45.8101 30.9957C45.9 30.9689 45.9743 30.9071 46.0142 30.8256C46.0539 30.7439 46.0562 30.65 46.0198 30.5669L45.7137 29.8645C44.2172 26.432 41.9797 23.0305 38.8742 19.4656C37.4037 17.7706 35.7289 16.0744 33.8968 14.4244C32.2967 12.9828 30.8139 11.7702 29.3634 10.7171C29.2232 10.6153 29.0246 10.6346 28.9084 10.7615C28.657 11.0366 28.1322 11.6178 28.1322 11.6178C28.0187 11.7437 28.0246 11.9314 28.1459 12.0504C28.1462 12.0507 28.2907 12.1922 28.3331 12.2355C28.482 12.3871 28.6296 12.5405 28.7764 12.6956C29.0625 12.9973 29.3496 13.3091 29.6541 13.6492C30.353 14.4282 31.0667 15.271 31.7752 16.1548C33.2268 17.9664 34.5386 19.8197 35.6741 21.6629C35.7581 21.7993 35.8379 21.933 35.9193 22.0679L17.9107 33.3127C16.9812 33.8931 16.7204 35.0834 17.3278 35.9713C17.7134 36.5351 18.3565 36.8415 19.0124 36.8415C19.3896 36.8415 19.7711 36.7401 20.1103 36.5282L37.7964 25.4842C38.039 25.9804 38.2661 26.47 38.4742 26.9529Z" fill="#FFCC2A"/>
<path d="M40.1801 44.5888L31.9792 49.2559L21.4941 58.9123H54.9993V27.2041L47.5988 31.2908L40.1801 44.5888Z" fill="#FFCC2A"/>
<path d="M28.9766 41.9727L25.083 40.7393L24.7363 42.5488L25.6747 45.3544L28.6105 44.4575L28.9766 41.9727Z" fill="#FFCC2A"/>
<path d="M23.832 49.919L26.5823 51.2487L28.1316 50.2311L27.583 46.8057L24.1652 47.3502L23.832 49.919Z" fill="#FFCC2A"/>
<path d="M35.0324 38.9028L33.0224 39.223L32.8262 40.7341L34.4439 41.5165L35.3553 40.9185L35.0324 38.9028Z" fill="#FFCC2A"/>
<path d="M37.5333 38.0551L37.0332 40.1479L38.0593 41.0158L40.4981 40.0416L39.4933 37.8281L37.5333 38.0551Z" fill="#FFCC2A"/>
<path d="M33.2511 43.2293L33.1387 44.0918L34.0618 44.5379L34.5817 44.1961L34.3972 43.0469L33.2511 43.2293Z" fill="#FFCC2A"/>
<path d="M30.0117 44.8411L30.7463 45.7027L31.5859 45.3679L31.5336 44.3808L30.9657 44.1187L30.0117 44.8411Z" fill="#FFCC2A"/>
</svg>
