<svg width="70" height="68" viewBox="0 0 70 68" fill="none" xmlns="http://www.w3.org/2000/svg">
<path d="M69.5 33.8755C69.5 52.293 54.0693 67.251 35 67.251C15.9307 67.251 0.5 52.293 0.5 33.8755C0.5 15.458 15.9307 0.5 35 0.5C54.0693 0.5 69.5 15.458 69.5 33.8755Z" stroke="#FFCC2A"/>
<g clip-path="url(#clip0_499_284)">
<path fill-rule="evenodd" clip-rule="evenodd" d="M16.735 23.09C17.3669 21.8375 18.4188 19.7469 19.0356 18.5C19.2794 18.0106 19.7444 17.7219 20.29 17.6731C22.8531 17.4388 28.2456 17.0375 30.4694 16.8912C31.495 16.8237 32.2525 16.9756 32.9088 17.6356L38.1325 22.8856C38.6031 23.3581 38.8675 23.9975 38.8656 24.6631L38.8562 41.6038L44.38 46.2256L49.4781 40.6081C50.5862 39.3894 52.5944 39.7925 53.1194 41.3563C54.8781 46.6381 58 56 58 56H35.5L43.1181 47.615L31.7575 38.1069L28.4781 35.3619L32.1531 42.0312C32.3481 42.3837 32.4606 42.7738 32.4869 43.1713L33.2294 54.5056C33.2706 55.1694 32.8112 56 31.7537 56C31.0637 56 30.4656 55.5256 30.31 54.8544C29.7306 52.3737 28.3881 46.6063 28.0488 45.1456C27.9963 44.9206 27.8856 44.7163 27.73 44.5475C26.7006 43.4394 22.5963 39.125 22.5963 39.125C22.5963 39.125 17.3388 51.6237 15.9194 55.1094C15.7075 55.6287 15.2181 56 14.5169 56C13.6506 56 13 55.2838 13 54.4944C13 54.2206 16.2719 38.4275 17.3538 32.6731C17.485 31.9775 17.8019 31.3288 18.2725 30.7981L20.2975 28.5163L13.7294 23.0187C12.7787 22.2219 13.9863 20.7838 14.9331 21.5806L16.735 23.09ZM29.5862 33.8431L32.9612 36.6687L36.6212 39.7325L34.6319 28.58L29.5862 33.8431ZM18.4094 24.4906L21.5425 27.1119L26.7756 21.2131L21.6569 20.87L18.4094 24.4906ZM40.2588 11C42.79 11 44.845 13.055 44.845 15.5863C44.845 18.1175 42.79 20.1706 40.2588 20.1706C37.7294 20.1706 35.6725 18.1175 35.6725 15.5863C35.6725 13.055 37.7294 11 40.2588 11Z" fill="#FFCC2A"/>
</g>
<defs>
<clipPath id="clip0_499_284">
<rect width="45" height="45" fill="white" transform="translate(13 11)"/>
</clipPath>
</defs>
</svg>
