<svg width="70" height="69" viewBox="0 0 70 69" fill="none" xmlns="http://www.w3.org/2000/svg">
<path d="M69.5 34.3657C69.5 52.7832 54.0693 67.7412 35 67.7412C15.9307 67.7412 0.5 52.7832 0.5 34.3657C0.5 15.9482 15.9307 0.990234 35 0.990234C54.0693 0.990234 69.5 15.9482 69.5 34.3657Z" stroke="#FFCC2A"/>
<path fill-rule="evenodd" clip-rule="evenodd" d="M17.6755 18.2236L21.688 20.4437L34.8755 13.0728L48.063 20.4437L52.0755 18.2236C52.7953 17.8258 53.6489 17.7209 54.4486 17.9322C55.2483 18.1435 55.9285 18.6536 56.3395 19.3503C56.7506 20.047 56.8589 20.8732 56.6406 21.6472C56.4223 22.4212 55.8953 23.0795 55.1755 23.4774L51.113 25.7247V40.2941L38.0005 47.6227V52.3925C38.0005 53.1947 37.6712 53.964 37.0852 54.5312C36.4991 55.0985 35.7043 55.4171 34.8755 55.4171C34.0467 55.4171 33.2518 55.0985 32.6658 54.5312C32.0797 53.964 31.7505 53.1947 31.7505 52.3925V47.6227L18.638 40.2941V25.7216L14.5755 23.4774C14.2191 23.2804 13.9062 23.0173 13.6548 22.7033C13.4035 22.3893 13.2184 22.0304 13.1103 21.6472C13.0022 21.2639 12.9732 20.8639 13.0249 20.4698C13.0765 20.0757 13.2079 19.6953 13.4114 19.3503C13.615 19.0053 13.8867 18.7026 14.2112 18.4592C14.5356 18.2159 14.9064 18.0369 15.3024 17.9322C15.6983 17.8276 16.1117 17.7995 16.5189 17.8495C16.926 17.8995 17.3191 18.0266 17.6755 18.2236ZM34.8755 20.0596L27.9692 23.9159L34.8755 27.736L41.7817 23.9159L34.8755 20.0596ZM38.0005 40.6389L44.863 36.8038V29.1818L38.0005 32.9746V40.6359V40.6389ZM31.7505 32.9746V40.6359L24.888 36.8007V29.1787L31.7505 32.9746Z" fill="#FFCC2A"/>
</svg>
