<svg width="70" height="68" viewBox="0 0 70 68" fill="none" xmlns="http://www.w3.org/2000/svg">
<path d="M69.5 33.8755C69.5 52.293 54.0693 67.251 35 67.251C15.9307 67.251 0.5 52.293 0.5 33.8755C0.5 15.458 15.9307 0.5 35 0.5C54.0693 0.5 69.5 15.458 69.5 33.8755Z" stroke="#FFCC2A"/>
<path d="M50.1435 19.0955C51.5629 17.3281 52.1052 15.3219 51.3563 14.6156C50.6061 13.911 48.8477 14.7717 47.4289 16.539C46.996 17.079 46.6561 17.6378 46.398 18.1778V17.1868V5.85512C46.398 5.38286 46.0448 5 45.6082 5C45.1721 5 44.819 5.38286 44.819 5.85512V17.1868V18.1778C44.5609 17.6379 44.2209 17.0791 43.7875 16.5391C42.3691 14.7718 40.6109 13.911 39.8606 14.6157C39.1114 15.322 39.6541 17.3282 41.0734 19.0956C42.3936 20.7399 43.9964 21.5829 44.819 21.1269V24.6712C44.5609 24.1307 44.2209 23.5724 43.7875 23.0325C42.3691 21.2646 40.6109 20.4039 39.8606 21.1091C39.1114 21.8153 39.6541 23.8206 41.0734 25.589C42.3936 27.2333 43.9964 28.0752 44.819 27.6197V31.1641C44.5609 30.6237 44.2209 30.0649 43.7875 29.5253C42.3691 27.7569 40.6109 26.8962 39.8606 27.6019C39.1114 28.3081 39.6541 30.3135 41.0734 32.0814C42.3936 33.7258 43.9964 34.5687 44.819 34.1127V39.6593V41.7282H37.7536V30.7266L31.6649 23.4157H21.9021C21.6233 22.5748 20.8861 21.9681 20.0142 21.9681C18.9034 21.9681 18 22.9459 18 24.1489C18 25.3514 18.9033 26.3291 20.0142 26.3291C20.7984 26.3291 21.473 25.8364 21.8049 25.1256H30.9633L36.175 31.3835V43.4376H44.8189V45.6046H34.0582V37.7131H24.8248L22.1059 35.9004C22.075 35.8801 22.0412 35.8776 22.0087 35.8623C22.0148 35.7942 22.0279 35.7286 22.0279 35.6594C22.0279 34.4564 21.1246 33.4787 20.0142 33.4787C18.9034 33.4787 18 34.4564 18 35.6594C18 36.8618 18.9033 37.8397 20.0142 37.8397C20.4912 37.8397 20.9256 37.6509 21.2706 37.3496C21.2739 37.3516 21.2749 37.3546 21.2776 37.3566L24.3778 39.4224H32.4793V47.3144H44.8189V49.3446H28.3994V53.7055H21.5918C21.2223 53.1976 20.6565 52.8641 20.0142 52.8641C18.9034 52.8641 18 53.8423 18 55.0448C18 56.2478 18.9033 57.2265 20.0142 57.2265C21.0072 57.2265 21.8298 56.4414 21.9932 55.4154H29.9779V51.0545H45.1865C45.2668 51.0545 45.5387 51.0479 45.6082 51.0479C46.0448 51.0479 46.3979 50.665 46.3979 50.1927V39.659V34.1123C47.2205 34.5684 48.8229 33.7254 50.1435 32.0811C51.5629 30.3132 52.1052 28.3078 51.3563 27.6016C50.6061 26.8958 48.8477 27.7566 47.4289 29.525C46.996 30.0644 46.6561 30.6232 46.398 31.1637V27.6193C47.2205 28.0749 48.8229 27.233 50.1436 25.5886C51.5629 23.8202 52.1053 21.815 51.3564 21.1087C50.6062 20.4035 48.8478 21.2644 47.429 23.0322C46.9961 23.5721 46.6562 24.1303 46.3981 24.6708V21.1265C47.2205 21.5828 48.8229 20.7397 50.1435 19.0955Z" fill="#FFCC2A"/>
<path d="M48.2989 14.1005C48.7351 14.1005 49.0882 13.7175 49.0882 13.2458V7.18719C49.0882 6.71538 48.7351 6.33252 48.2989 6.33252C47.8623 6.33252 47.5092 6.71538 47.5092 7.18719V13.2458C47.5092 13.7175 47.8623 14.1005 48.2989 14.1005Z" fill="#FFCC2A"/>
<path d="M50.9422 8.1499C50.5056 8.1499 50.1525 8.53276 50.1525 9.00512V12.0339C50.1525 12.5058 50.5056 12.8886 50.9422 12.8886C51.3784 12.8886 51.7315 12.5058 51.7315 12.0339V9.00512C51.7315 8.53276 51.3784 8.1499 50.9422 8.1499Z" fill="#FFCC2A"/>
<path d="M43.0127 14.1005C43.4488 14.1005 43.8019 13.7175 43.8019 13.2458V7.18719C43.8019 6.71538 43.4488 6.33252 43.0127 6.33252C42.5761 6.33252 42.223 6.71538 42.223 7.18719V13.2458C42.223 13.7175 42.5761 14.1005 43.0127 14.1005Z" fill="#FFCC2A"/>
<path d="M40.3694 12.8886C40.8056 12.8886 41.1587 12.5058 41.1587 12.0339V9.00512C41.1587 8.53276 40.8056 8.1499 40.3694 8.1499C39.9328 8.1499 39.5797 8.53276 39.5797 9.00512V12.0339C39.5797 12.5058 39.9328 12.8886 40.3694 12.8886Z" fill="#FFCC2A"/>
</svg>
