<svg width="70" height="68" viewBox="0 0 70 68" fill="none" xmlns="http://www.w3.org/2000/svg">
<path d="M69.5 33.8755C69.5 52.293 54.0693 67.251 35 67.251C15.9307 67.251 0.5 52.293 0.5 33.8755C0.5 15.458 15.9307 0.5 35 0.5C54.0693 0.5 69.5 15.458 69.5 33.8755Z" stroke="#FFCC2A"/>
<path fill-rule="evenodd" clip-rule="evenodd" d="M35 14.8333H39V18.6667H43V25.7622L57 30.78V55.0833H59V57H11V55.0833H13V34H25V18.6667H29V14.8333H33V11H35V14.8333ZM41 20.5833H27V55.0833H29V51.25H39V55.0833H41V20.5833ZM37 53.1667H31V55.0833H37V53.1667ZM53 55.0833H55V32.1083L43 27.8092V55.0833H45V51.25H53V55.0833ZM25 35.9167H15V55.0833H17V51.25H23V55.0833H25V35.9167ZM21 53.1667H19V55.0833H21V53.1667ZM51 53.1667H47V55.0833H51V53.1667ZM19 43.5833V47.4167H17V43.5833H19ZM23 43.5833V47.4167H21V43.5833H23ZM33 24.4167V47.4167H31V24.4167H33ZM53 45.5V47.4167H45V45.5H53ZM37 24.4167V47.4167H35V24.4167H37ZM53 41.6667V43.5833H45V41.6667H53ZM19 37.8333V41.6667H17V37.8333H19ZM23 37.8333V41.6667H21V37.8333H23ZM53 37.8333V39.75H45V37.8333H53ZM53 34V35.9167H45V34H53ZM37 16.75H31V18.6667H37V16.75Z" fill="#FFCC2A"/>
</svg>
