<svg width="15" height="15" viewBox="0 0 15 15" fill="none" xmlns="http://www.w3.org/2000/svg">
<g clip-path="url(#clip0_215_2899)">
<path d="M0.0356445 15L1.09002 11.1481C0.439394 10.0206 0.0975195 8.7425 0.0981445 7.43187C0.10002 3.33437 3.43439 0 7.53127 0C9.51939 0.000625 11.3856 0.775 12.7894 2.18C14.1925 3.585 14.965 5.4525 14.9644 7.43875C14.9625 11.5369 11.6281 14.8713 7.53127 14.8713C6.28752 14.8706 5.06189 14.5588 3.97627 13.9663L0.0356445 15ZM4.15877 12.6206C5.20627 13.2425 6.20627 13.615 7.52877 13.6156C10.9338 13.6156 13.7075 10.8444 13.7094 7.4375C13.7106 4.02375 10.95 1.25625 7.53377 1.255C4.12627 1.255 1.35439 4.02625 1.35314 7.4325C1.35252 8.82312 1.76002 9.86437 2.44439 10.9537L1.82002 13.2337L4.15877 12.6206ZM11.2756 9.20563C11.2294 9.12813 11.1056 9.08187 10.9194 8.98875C10.7338 8.89563 9.82064 8.44625 9.65002 8.38437C9.48002 8.3225 9.35627 8.29125 9.23189 8.4775C9.10814 8.66313 8.75189 9.08187 8.64377 9.20563C8.53564 9.32938 8.42689 9.345 8.24127 9.25187C8.05564 9.15875 7.45689 8.96313 6.74752 8.33C6.19564 7.8375 5.82252 7.22937 5.71439 7.04313C5.60627 6.8575 5.70314 6.75688 5.79564 6.66438C5.87939 6.58125 5.98127 6.4475 6.07439 6.33875C6.16877 6.23125 6.19939 6.15375 6.26189 6.02938C6.32377 5.90563 6.29314 5.79688 6.24627 5.70375C6.19939 5.61125 5.82814 4.69688 5.67377 4.325C5.52252 3.96312 5.36939 4.01187 5.25564 4.00625L4.89939 4C4.77564 4 4.57439 4.04625 4.40439 4.2325C4.23439 4.41875 3.75439 4.8675 3.75439 5.78188C3.75439 6.69625 4.42002 7.57937 4.51252 7.70312C4.60564 7.82687 5.82189 9.70312 7.68502 10.5075C8.12814 10.6988 8.47439 10.8131 8.74377 10.8988C9.18877 11.04 9.59377 11.02 9.91377 10.9725C10.2706 10.9194 11.0125 10.5231 11.1675 10.0894C11.3225 9.655 11.3225 9.28312 11.2756 9.20563Z" fill="white"/>
</g>
<defs>
<clipPath id="clip0_215_2899">
<rect width="15" height="15" fill="white"/>
</clipPath>
</defs>
</svg>
