<svg width="16" height="18" viewBox="0 0 16 18" fill="none" xmlns="http://www.w3.org/2000/svg">
<path d="M2.1216 0H3.2736L4.064 2.65339L4.7968 0H5.96L4.628 3.94568V6.63849H3.4832V3.94568L2.1216 0ZM7.3968 1.70083C6.5016 1.70083 5.908 2.23123 5.908 3.01606V5.41644C5.908 6.2794 6.4112 6.72879 7.3968 6.72879C8.2144 6.72879 8.8576 6.23926 8.8576 5.41644V3.01606C8.8576 2.24986 8.22 1.70083 7.3968 1.70083ZM7.8216 5.37558C7.8216 5.64221 7.6696 5.8386 7.396 5.8386C7.1152 5.8386 6.9528 5.63289 6.9528 5.37558V3.09705C6.9528 2.82899 7.0904 2.63045 7.376 2.63045C7.688 2.63045 7.8216 2.82326 7.8216 3.09705V5.37558ZM11.6048 1.74169V5.45872C11.4808 5.59777 11.2048 5.8257 11.0072 5.8257C10.7904 5.8257 10.7368 5.69238 10.7368 5.496V1.74169H9.7208V5.8343C9.7208 6.3181 9.8856 6.70873 10.4304 6.70873C10.7376 6.70873 11.1648 6.56538 11.6048 6.09734V6.63777H12.6208V1.74169H11.6048ZM13.3672 11.6743C13.0088 11.6743 12.9344 11.9001 12.9344 12.2212V12.6935H13.7896V12.2205C13.7904 11.9051 13.716 11.6743 13.3672 11.6743ZM9.6048 11.703C9.5376 11.7338 9.4712 11.7811 9.4048 11.8449V14.7513C9.484 14.8273 9.56 14.8818 9.6344 14.9154C9.792 14.9871 10.0224 14.9921 10.1296 14.8674C10.1856 14.8015 10.2136 14.6947 10.2136 14.5456V12.1381C10.2136 11.9804 10.1792 11.8614 10.1104 11.7797C9.9928 11.6414 9.7744 11.6263 9.6048 11.703ZM13.4664 7.97951C11.3832 7.85265 4.6136 7.85265 2.5336 7.97951C0.2824 8.11713 0.0168 9.33559 0 12.543C0.0168 15.7447 0.28 16.9689 2.5336 17.1065C4.6136 17.2334 11.3832 17.2334 13.4664 17.1065C15.7176 16.9689 15.9832 15.7497 16 12.543C15.9832 9.34133 15.72 8.11713 13.4664 7.97951ZM3.6072 15.6386H2.5168V10.2344H1.3888V9.31696H4.7344V10.2344H3.6064L3.6072 15.6386ZM7.484 15.6386H6.516V15.124C6.3376 15.314 6.152 15.4587 5.9592 15.5577C5.4376 15.8257 4.7216 15.8193 4.7216 14.8732V10.9755H5.6888V14.5506C5.6888 14.7384 5.7392 14.8646 5.9464 14.8646C6.1352 14.8646 6.3976 14.6474 6.5152 14.5155V10.9755H7.4832L7.484 15.6386ZM11.2096 14.6725C11.2096 15.2495 10.9688 15.6981 10.3248 15.6981C9.9704 15.6981 9.6752 15.582 9.4056 15.2803V15.6386H8.4288V9.31696H9.4056V11.3525C9.624 11.1138 9.9208 10.9167 10.2664 10.9167C10.9752 10.9167 11.2104 11.4536 11.2104 12.0857V14.6725H11.2096ZM14.7864 13.4167H12.9352V14.2969C12.9352 14.6467 12.9688 14.9491 13.3576 14.9491C13.7664 14.9491 13.7904 14.7026 13.7904 14.2969V13.9729H14.7864V14.3234C14.7864 15.2215 14.356 15.7662 13.336 15.7662C12.412 15.7662 11.9392 15.1627 11.9392 14.3234V12.2298C11.9392 11.4206 12.536 10.858 13.4088 10.858C14.3376 10.858 14.7856 11.3869 14.7856 12.2298L14.7864 13.4167Z" fill="white"/>
</svg>
