<svg width="639" height="871" viewBox="0 0 639 871" fill="none" xmlns="http://www.w3.org/2000/svg">
<path d="M488 170V70L388 170H488Z" stroke="#FFCC2A" stroke-width="0.5" stroke-linejoin="round"/>
<path d="M288 170L388 70H288V170Z" stroke="#FFCC2A" stroke-width="0.5" stroke-linejoin="round"/>
<path d="M487.289 70.9997H628.711L558 0.289062L487.289 70.9997Z" stroke="#FFCC2A" stroke-width="0.5" stroke-linejoin="round"/>
<path d="M488 170L638.5 136.5L488 70V170Z" stroke="#FFCC2A" stroke-width="0.5" stroke-linejoin="round"/>
<path d="M288 170L388 270H288V170Z" stroke="#FFCC2A" stroke-width="0.5" stroke-linejoin="round"/>
<path d="M488 270V170L388 270H488Z" stroke="#FFCC2A" stroke-width="0.5" stroke-linejoin="round"/>
<path d="M288 70L188 170V70H288Z" stroke="#FFCC2A" stroke-width="0.5" stroke-linejoin="round"/>
<path d="M188 170H88L188 70V170Z" stroke="#FFCC2A" stroke-width="0.5" stroke-linejoin="round"/>
<path d="M188 270V170H88L188 270Z" stroke="#FFCC2A" stroke-width="0.5" stroke-linejoin="round"/>
<path d="M288 170V270L188 170H288Z" stroke="#FFCC2A" stroke-width="0.5" stroke-linejoin="round"/>
<path d="M288 370H188L288 270V370Z" stroke="#FFCC2A" stroke-width="0.5" stroke-linejoin="round"/>
<path d="M88 370L188 270H88V370Z" stroke="#FFCC2A" stroke-width="0.5" stroke-linejoin="round"/>
<path d="M188 470L88 370V470H188Z" stroke="#FFCC2A" stroke-width="0.5" stroke-linejoin="round"/>
<path d="M288 470L188 370V470H288Z" stroke="#FFCC2A" stroke-width="0.5" stroke-linejoin="round"/>
<path d="M388 270L488 370H388V270Z" stroke="#FFCC2A" stroke-width="0.5" stroke-linejoin="round"/>
<path d="M388 370V270H288L388 370Z" stroke="#FFCC2A" stroke-width="0.5" stroke-linejoin="round"/>
<path d="M338 420V370L388 420H338Z" stroke="#FFCC2A" stroke-width="0.5" stroke-linejoin="round"/>
<path d="M288 370H338V420L288 370Z" stroke="#FFCC2A" stroke-width="0.5" stroke-linejoin="round"/>
<path d="M338 470V420L288 470H338Z" stroke="#FFCC2A" stroke-width="0.5" stroke-linejoin="round"/>
<path d="M338 470V420H388L338 470Z" stroke="#FFCC2A" stroke-width="0.5" stroke-linejoin="round"/>
<path d="M488 470H388V370L488 470Z" stroke="#FFCC2A" stroke-width="0.5" stroke-linejoin="round"/>
<path d="M-12 170V70H88L-12 170Z" stroke="#FFCC2A" stroke-width="0.5" stroke-linejoin="round"/>
<path d="M-12 170V270H88L-12 170Z" stroke="#FFCC2A" stroke-width="0.5" stroke-linejoin="round"/>
<path d="M-12 270H88V370L-12 270Z" stroke="#FFCC2A" stroke-width="0.5" stroke-linejoin="round"/>
<path d="M-12 370L88 470V370H-12Z" stroke="#FFCC2A" stroke-width="0.5" stroke-linejoin="round"/>
<path d="M38 520V470H88L38 520Z" stroke="#FFCC2A" stroke-width="0.5" stroke-linejoin="round"/>
<path d="M-12 470V520L38 470H-12Z" stroke="#FFCC2A" stroke-width="0.5" stroke-linejoin="round"/>
<path d="M38 570H-12L38 520V570Z" stroke="#FFCC2A" stroke-width="0.5" stroke-linejoin="round"/>
<path d="M88 570H38L88 520V570Z" stroke="#FFCC2A" stroke-width="0.5" stroke-linejoin="round"/>
<path d="M88 670V570H-12L88 670Z" stroke="#FFCC2A" stroke-width="0.5" stroke-linejoin="round"/>
<path d="M88 670H-12L88 770V670Z" stroke="#FFCC2A" stroke-width="0.5" stroke-linejoin="round"/>
<path d="M88 770V870H-12L88 770Z" stroke="#FFCC2A" stroke-width="0.5" stroke-linejoin="round"/>
<path d="M388 470L488 570H388V470Z" stroke="#FFCC2A" stroke-width="0.5" stroke-linejoin="round"/>
<path d="M388 570H288L388 470V570Z" stroke="#FFCC2A" stroke-width="0.5" stroke-linejoin="round"/>
<path d="M288 670L388 570H288V670Z" stroke="#FFCC2A" stroke-width="0.5" stroke-linejoin="round"/>
<path d="M488 670H388L488 570V670Z" stroke="#FFCC2A" stroke-width="0.5" stroke-linejoin="round"/>
<path d="M288 470V570H188L288 470Z" stroke="#FFCC2A" stroke-width="0.5" stroke-linejoin="round"/>
<path d="M188 570H88L188 470V570Z" stroke="#FFCC2A" stroke-width="0.5" stroke-linejoin="round"/>
<path d="M88 570L188 670V570H88Z" stroke="#FFCC2A" stroke-width="0.5" stroke-linejoin="round"/>
<path d="M288 670H188L288 570V670Z" stroke="#FFCC2A" stroke-width="0.5" stroke-linejoin="round"/>
<path d="M288 770V670H188L288 770Z" stroke="#FFCC2A" stroke-width="0.5" stroke-linejoin="round"/>
<path d="M188 670L88 770H188V670Z" stroke="#FFCC2A" stroke-width="0.5" stroke-linejoin="round"/>
<path d="M188 870H88V770L188 870Z" stroke="#FFCC2A" stroke-width="0.5" stroke-linejoin="round"/>
<path d="M188 770V870H288L188 770Z" stroke="#FFCC2A" stroke-width="0.5" stroke-linejoin="round"/>
<path d="M288 870L488 670" stroke="#FFCC2A" stroke-width="0.5" stroke-linejoin="round"/>
</svg>
