<svg width="1535" height="1434" viewBox="0 0 1535 1434" fill="none" xmlns="http://www.w3.org/2000/svg">
<path d="M940 1.0004L742 159.4L940 159.4L940 1.0004Z" stroke="#FFCC2A" stroke-width="0.2" stroke-linejoin="round"/>
<path d="M841 159.401L742 159.401L841 238.601L841 159.401Z" stroke="#FFCC2A" stroke-width="0.2" stroke-linejoin="round"/>
<path d="M742 317.8L742 238.6L841 238.6L742 317.8Z" stroke="#FFCC2A" stroke-width="0.2" stroke-linejoin="round"/>
<path d="M940 317.8L841 238.6L940 238.6L940 317.8Z" stroke="#FFCC2A" stroke-width="0.2" stroke-linejoin="round"/>
<path d="M940 159.401L841 238.601L940 238.601L940 159.401Z" stroke="#FFCC2A" stroke-width="0.2" stroke-linejoin="round"/>
<path d="M940 159.401L940 238.601L1039 238.601L940 159.401Z" stroke="#FFCC2A" stroke-width="0.2" stroke-linejoin="round"/>
<path d="M989.5 278.201L940 278.201L940 238.601L989.5 278.201Z" stroke="#FFCC2A" stroke-width="0.2" stroke-linejoin="round"/>
<path d="M940 278.2L989.5 278.2L989.5 317.8L940 278.2Z" stroke="#FFCC2A" stroke-width="0.2" stroke-linejoin="round"/>
<path d="M1039 278.2L989.5 278.2L989.5 317.8L1039 278.2Z" stroke="#FFCC2A" stroke-width="0.2" stroke-linejoin="round"/>
<path d="M1039 238.601L989.5 238.601L989.5 278.201L1039 238.601Z" stroke="#FFCC2A" stroke-width="0.2" stroke-linejoin="round"/>
<path d="M1138 317.8L1039 238.6L1039 317.8L1138 317.8Z" stroke="#FFCC2A" stroke-width="0.2" stroke-linejoin="round"/>
<path d="M1039 159.401L1138 159.401L1039 238.601L1039 159.401Z" stroke="#FFCC2A" stroke-width="0.2" stroke-linejoin="round"/>
<path d="M940 1.0002L1039 1.0002L1039 80.2002L940 1.0002Z" stroke="#FFCC2A" stroke-width="0.2" stroke-linejoin="round"/>
<path d="M940 80.2004L1039 80.2004L1039 159.4L940 80.2004Z" stroke="#FFCC2A" stroke-width="0.2" stroke-linejoin="round"/>
<path d="M1039 80.2004L1138 80.2004L1138 159.4L1039 80.2004Z" stroke="#FFCC2A" stroke-width="0.2" stroke-linejoin="round"/>
<path d="M1039 80.2007L1138 1.00069L1039 1.00069L1039 80.2007Z" stroke="#FFCC2A" stroke-width="0.2" stroke-linejoin="round"/>
<path d="M742 317.8L841 397L841 317.8L742 317.8Z" stroke="#FFCC2A" stroke-width="0.2" stroke-linejoin="round"/>
<path d="M841 397.001L742 397.001L841 476.201L841 397.001Z" stroke="#FFCC2A" stroke-width="0.2" stroke-linejoin="round"/>
<path d="M940 397.001L841 397.001L940 476.201L940 397.001Z" stroke="#FFCC2A" stroke-width="0.2" stroke-linejoin="round"/>
<path d="M940 317.8L841 397L940 397L940 317.8Z" stroke="#FFCC2A" stroke-width="0.2" stroke-linejoin="round"/>
<path d="M742 476.201L742 634.601L940 476.201L742 476.201Z" stroke="#FFCC2A" stroke-width="0.2" stroke-linejoin="round"/>
<path d="M1039 476.2L940 476.2L1039 555.4L1039 476.2Z" stroke="#FFCC2A" stroke-width="0.2" stroke-linejoin="round"/>
<path d="M940 634.601L1039 555.401L940 555.401L940 634.601Z" stroke="#FFCC2A" stroke-width="0.2" stroke-linejoin="round"/>
<path d="M1138 555.401L1039 555.401L1138 634.601L1138 555.401Z" stroke="#FFCC2A" stroke-width="0.2" stroke-linejoin="round"/>
<path d="M1138 555.4L1039 476.2L1039 555.4L1138 555.4Z" stroke="#FFCC2A" stroke-width="0.2" stroke-linejoin="round"/>
<path d="M1039 317.8L1039 397L940 317.8L1039 317.8Z" stroke="#FFCC2A" stroke-width="0.2" stroke-linejoin="round"/>
<path d="M940 397.001L989.5 397.001L940 436.601L940 397.001Z" stroke="#FFCC2A" stroke-width="0.2" stroke-linejoin="round"/>
<path d="M989.5 476.201L940 436.601L989.5 436.601L989.5 476.201Z" stroke="#FFCC2A" stroke-width="0.2" stroke-linejoin="round"/>
<path d="M1039 436.601L1039 476.201L989.5 476.201L1039 436.601Z" stroke="#FFCC2A" stroke-width="0.2" stroke-linejoin="round"/>
<path d="M1039 436.601L989.5 397.001L989.5 436.601L1039 436.601Z" stroke="#FFCC2A" stroke-width="0.2" stroke-linejoin="round"/>
<path d="M1138 397.001L1039 397.001L1039 476.201L1138 397.001Z" stroke="#FFCC2A" stroke-width="0.2" stroke-linejoin="round"/>
<path d="M1138 317.8L1039 397L1138 397L1138 317.8Z" stroke="#FFCC2A" stroke-width="0.2" stroke-linejoin="round"/>
<path d="M1138 317.8L1237 397L1237 317.8L1138 317.8Z" stroke="#FFCC2A" stroke-width="0.2" stroke-linejoin="round"/>
<path d="M1237 476.201L1237 397.001L1138 397.001L1237 476.201Z" stroke="#FFCC2A" stroke-width="0.2" stroke-linejoin="round"/>
<path d="M1237 397.001L1237 476.201L1336 476.201L1237 397.001Z" stroke="#FFCC2A" stroke-width="0.2" stroke-linejoin="round"/>
<path d="M1237 317.8L1336 317.8L1336 397L1237 317.8Z" stroke="#FFCC2A" stroke-width="0.2" stroke-linejoin="round"/>
<path d="M1138 555.4L1138 476.2L1237 555.4L1138 555.4Z" stroke="#FFCC2A" stroke-width="0.2" stroke-linejoin="round"/>
<path d="M1138 555.401L1237 555.401L1138 634.601L1138 555.401Z" stroke="#FFCC2A" stroke-width="0.2" stroke-linejoin="round"/>
<path d="M1237 555.401L1336 555.401L1336 634.601L1237 555.401Z" stroke="#FFCC2A" stroke-width="0.2" stroke-linejoin="round"/>
<path d="M1336 476.2L1237 476.2L1237 555.4L1336 476.2Z" stroke="#FFCC2A" stroke-width="0.2" stroke-linejoin="round"/>
<path d="M1534 634.601L1534 476.201L1336 634.601L1534 634.601Z" stroke="#FFCC2A" stroke-width="0.2" stroke-linejoin="round"/>
<path d="M1435 317.8L1435 397L1336 397L1435 317.8Z" stroke="#FFCC2A" stroke-width="0.2" stroke-linejoin="round"/>
<path d="M1336 476.201L1336 397.001L1435 476.201L1336 476.201Z" stroke="#FFCC2A" stroke-width="0.2" stroke-linejoin="round"/>
<path d="M1534 476.201L1435 476.201L1534 397.001L1534 476.201Z" stroke="#FFCC2A" stroke-width="0.2" stroke-linejoin="round"/>
<path d="M1435 397L1534 317.8L1435 317.8L1435 397Z" stroke="#FFCC2A" stroke-width="0.2" stroke-linejoin="round"/>
<path d="M1237 1.00069L1138 1.00069L1138 80.2007L1237 1.00069Z" stroke="#FFCC2A" stroke-width="0.2" stroke-linejoin="round"/>
<path d="M1237 159.4L1138 159.4L1138 80.2004L1237 159.4Z" stroke="#FFCC2A" stroke-width="0.2" stroke-linejoin="round"/>
<path d="M1336 80.2004L1336 159.4L1237 80.2004L1336 80.2004Z" stroke="#FFCC2A" stroke-width="0.2" stroke-linejoin="round"/>
<path d="M1237 1.00069L1336 1.00069L1237 80.2007L1237 1.00069Z" stroke="#FFCC2A" stroke-width="0.2" stroke-linejoin="round"/>
<path d="M1237 238.601L1138 238.601L1237 159.401L1237 238.601Z" stroke="#FFCC2A" stroke-width="0.2" stroke-linejoin="round"/>
<path d="M1138 238.601L1187.5 238.601L1187.5 278.201L1138 238.601Z" stroke="#FFCC2A" stroke-width="0.2" stroke-linejoin="round"/>
<path d="M1187.5 278.201L1138 278.201L1187.5 317.801L1187.5 278.201Z" stroke="#FFCC2A" stroke-width="0.2" stroke-linejoin="round"/>
<path d="M1187.5 317.801L1187.5 278.201L1237 317.801L1187.5 317.801Z" stroke="#FFCC2A" stroke-width="0.2" stroke-linejoin="round"/>
<path d="M1237 278.201L1187.5 238.601L1187.5 278.201L1237 278.201Z" stroke="#FFCC2A" stroke-width="0.2" stroke-linejoin="round"/>
<path d="M1237 238.601L1237 317.801L1336 317.801L1237 238.601Z" stroke="#FFCC2A" stroke-width="0.2" stroke-linejoin="round"/>
<path d="M1237 238.601L1336 238.601L1237 159.401L1237 238.601Z" stroke="#FFCC2A" stroke-width="0.2" stroke-linejoin="round"/>
<path d="M1435 159.401L1435 238.601L1336 159.401L1435 159.401Z" stroke="#FFCC2A" stroke-width="0.2" stroke-linejoin="round"/>
<path d="M1336 238.601L1435 317.801L1435 238.601L1336 238.601Z" stroke="#FFCC2A" stroke-width="0.2" stroke-linejoin="round"/>
<path d="M1435 317.801L1534 238.601L1534 317.801L1435 317.801Z" stroke="#FFCC2A" stroke-width="0.2" stroke-linejoin="round"/>
<path d="M1534 238.601L1435 159.401L1534 159.401L1534 238.601Z" stroke="#FFCC2A" stroke-width="0.2" stroke-linejoin="round"/>
<path d="M1336 159.4L1534 1.0004L1336 1.00041L1336 159.4Z" stroke="#FFCC2A" stroke-width="0.2" stroke-linejoin="round"/>
<path d="M601 733.711V633.711L501 733.711H601Z" stroke="#FFCC2A" stroke-width="0.3" stroke-linejoin="round"/>
<path d="M401 733.711L501 633.711H401V733.711Z" stroke="#FFCC2A" stroke-width="0.3" stroke-linejoin="round"/>
<path d="M600.289 634.711H741.711L671 564L600.289 634.711Z" stroke="#FFCC2A" stroke-width="0.3" stroke-linejoin="round"/>
<path d="M601 733.711L751.5 700.211L601 633.711V733.711Z" stroke="#FFCC2A" stroke-width="0.3" stroke-linejoin="round"/>
<path d="M401 733.711L501 833.711H401V733.711Z" stroke="#FFCC2A" stroke-width="0.3" stroke-linejoin="round"/>
<path d="M601 833.711V733.711L501 833.711H601Z" stroke="#FFCC2A" stroke-width="0.3" stroke-linejoin="round"/>
<path d="M401 633.711L301 733.711V633.711H401Z" stroke="#FFCC2A" stroke-width="0.3" stroke-linejoin="round"/>
<path d="M301 733.711H201L301 633.711V733.711Z" stroke="#FFCC2A" stroke-width="0.3" stroke-linejoin="round"/>
<path d="M301 833.711V733.711H201L301 833.711Z" stroke="#FFCC2A" stroke-width="0.3" stroke-linejoin="round"/>
<path d="M401 733.711V833.711L301 733.711H401Z" stroke="#FFCC2A" stroke-width="0.3" stroke-linejoin="round"/>
<path d="M401 933.711H301L401 833.711V933.711Z" stroke="#FFCC2A" stroke-width="0.3" stroke-linejoin="round"/>
<path d="M201 933.711L301 833.711H201V933.711Z" stroke="#FFCC2A" stroke-width="0.3" stroke-linejoin="round"/>
<path d="M301 1033.71L201 933.711V1033.71H301Z" stroke="#FFCC2A" stroke-width="0.3" stroke-linejoin="round"/>
<path d="M401 1033.71L301 933.711V1033.71H401Z" stroke="#FFCC2A" stroke-width="0.3" stroke-linejoin="round"/>
<path d="M501 833.711L601 933.711H501V833.711Z" stroke="#FFCC2A" stroke-width="0.3" stroke-linejoin="round"/>
<path d="M501 933.711V833.711H401L501 933.711Z" stroke="#FFCC2A" stroke-width="0.3" stroke-linejoin="round"/>
<path d="M451 983.711V933.711L501 983.711H451Z" stroke="#FFCC2A" stroke-width="0.3" stroke-linejoin="round"/>
<path d="M401 933.711H451V983.711L401 933.711Z" stroke="#FFCC2A" stroke-width="0.3" stroke-linejoin="round"/>
<path d="M451 1033.71V983.711L401 1033.71H451Z" stroke="#FFCC2A" stroke-width="0.3" stroke-linejoin="round"/>
<path d="M451 1033.71V983.711H501L451 1033.71Z" stroke="#FFCC2A" stroke-width="0.3" stroke-linejoin="round"/>
<path d="M601 1033.71H501V933.711L601 1033.71Z" stroke="#FFCC2A" stroke-width="0.3" stroke-linejoin="round"/>
<path d="M101 733.711V633.711H201L101 733.711Z" stroke="#FFCC2A" stroke-width="0.3" stroke-linejoin="round"/>
<path d="M101 733.711L1 633.711H101V733.711Z" stroke="#FFCC2A" stroke-width="0.3" stroke-linejoin="round"/>
<path d="M101 833.711V733.711H1L101 833.711Z" stroke="#FFCC2A" stroke-width="0.3" stroke-linejoin="round"/>
<path d="M101 733.711V833.711H201L101 733.711Z" stroke="#FFCC2A" stroke-width="0.3" stroke-linejoin="round"/>
<path d="M101 833.711H201V933.711L101 833.711Z" stroke="#FFCC2A" stroke-width="0.3" stroke-linejoin="round"/>
<path d="M101 933.711V833.711L1 933.711H101Z" stroke="#FFCC2A" stroke-width="0.3" stroke-linejoin="round"/>
<path d="M101 933.711H1" stroke="#FFCC2A" stroke-width="0.3" stroke-linejoin="round"/>
<path d="M101 933.711L201 1033.71V933.711H101Z" stroke="#FFCC2A" stroke-width="0.3" stroke-linejoin="round"/>
<path d="M151 1083.71V1033.71H201L151 1083.71Z" stroke="#FFCC2A" stroke-width="0.3" stroke-linejoin="round"/>
<path d="M101 1033.71V1083.71L151 1033.71H101Z" stroke="#FFCC2A" stroke-width="0.3" stroke-linejoin="round"/>
<path d="M151 1133.71H101L151 1083.71V1133.71Z" stroke="#FFCC2A" stroke-width="0.3" stroke-linejoin="round"/>
<path d="M201 1133.71H151L201 1083.71V1133.71Z" stroke="#FFCC2A" stroke-width="0.3" stroke-linejoin="round"/>
<path d="M101 1033.71V1133.71H1L101 1033.71Z" stroke="#FFCC2A" stroke-width="0.3" stroke-linejoin="round"/>
<path d="M101 1233.71V1133.71H1L101 1233.71Z" stroke="#FFCC2A" stroke-width="0.4" stroke-linejoin="round"/>
<path d="M201 1233.71V1133.71H101L201 1233.71Z" stroke="#FFCC2A" stroke-width="0.3" stroke-linejoin="round"/>
<path d="M201 1233.71H101L201 1333.71V1233.71Z" stroke="#FFCC2A" stroke-width="0.4" stroke-linejoin="round"/>
<path d="M1 1233.71V1333.71H101L1 1233.71Z" stroke="#FFCC2A" stroke-width="0.5" stroke-linejoin="round"/>
<path d="M101 1333.71V1433.71H1L101 1333.71Z" stroke="#FFCC2A" stroke-width="0.3" stroke-linejoin="round"/>
<path d="M201 1333.71V1433.71H101L201 1333.71Z" stroke="#FFCC2A" stroke-width="0.3" stroke-linejoin="round"/>
<path d="M501 1033.71L601 1133.71H501V1033.71Z" stroke="#FFCC2A" stroke-width="0.3" stroke-linejoin="round"/>
<path d="M501 1133.71H401L501 1033.71V1133.71Z" stroke="#FFCC2A" stroke-width="0.3" stroke-linejoin="round"/>
<path d="M401 1233.71L501 1133.71H401V1233.71Z" stroke="#FFCC2A" stroke-width="0.3" stroke-linejoin="round"/>
<path d="M601 1233.71H501L601 1133.71V1233.71Z" stroke="#FFCC2A" stroke-width="0.3" stroke-linejoin="round"/>
<path d="M401 1033.71V1133.71H301L401 1033.71Z" stroke="#FFCC2A" stroke-width="0.3" stroke-linejoin="round"/>
<path d="M301 1133.71H201L301 1033.71V1133.71Z" stroke="#FFCC2A" stroke-width="0.3" stroke-linejoin="round"/>
<path d="M201 1133.71L301 1233.71V1133.71H201Z" stroke="#FFCC2A" stroke-width="0.3" stroke-linejoin="round"/>
<path d="M401 1233.71H301L401 1133.71V1233.71Z" stroke="#FFCC2A" stroke-width="0.3" stroke-linejoin="round"/>
<path d="M401 1333.71V1233.71H301L401 1333.71Z" stroke="#FFCC2A" stroke-width="0.3" stroke-linejoin="round"/>
<path d="M301 1233.71L201 1333.71H301V1233.71Z" stroke="#FFCC2A" stroke-width="0.3" stroke-linejoin="round"/>
<path d="M301 1433.71H201V1333.71L301 1433.71Z" stroke="#FFCC2A" stroke-width="0.3" stroke-linejoin="round"/>
<path d="M301 1333.71V1433.71H401L301 1333.71Z" stroke="#FFCC2A" stroke-width="0.3" stroke-linejoin="round"/>
<path d="M401 1433.71L601 1233.71" stroke="#FFCC2A" stroke-width="0.3" stroke-linejoin="round"/>
</svg>
