<svg width="793" height="635" viewBox="0 0 793 635" fill="none" xmlns="http://www.w3.org/2000/svg">
<path d="M198.711 1L0.710938 159.4H198.711V1Z" stroke="#FFCC2A" stroke-width="0.5" stroke-linejoin="round"/>
<path d="M99.7109 159.401H0.710938L99.7109 238.601V159.401Z" stroke="#FFCC2A" stroke-width="0.5" stroke-linejoin="round"/>
<path d="M0.710938 317.8V238.6H99.7109L0.710938 317.8Z" stroke="#FFCC2A" stroke-width="0.5" stroke-linejoin="round"/>
<path d="M198.711 317.8L99.7109 238.6H198.711V317.8Z" stroke="#FFCC2A" stroke-width="0.5" stroke-linejoin="round"/>
<path d="M198.711 159.401L99.7109 238.601H198.711V159.401Z" stroke="#FFCC2A" stroke-width="0.5" stroke-linejoin="round"/>
<path d="M198.711 159.401V238.601H297.711L198.711 159.401Z" stroke="#FFCC2A" stroke-width="0.5" stroke-linejoin="round"/>
<path d="M248.211 278.201H198.711V238.601L248.211 278.201Z" stroke="#FFCC2A" stroke-width="0.5" stroke-linejoin="round"/>
<path d="M198.711 278.2H248.211V317.8L198.711 278.2Z" stroke="#FFCC2A" stroke-width="0.5" stroke-linejoin="round"/>
<path d="M297.711 278.2H248.211V317.8L297.711 278.2Z" stroke="#FFCC2A" stroke-width="0.5" stroke-linejoin="round"/>
<path d="M297.711 238.601H248.211V278.201L297.711 238.601Z" stroke="#FFCC2A" stroke-width="0.5" stroke-linejoin="round"/>
<path d="M396.711 317.8L297.711 238.6V317.8H396.711Z" stroke="#FFCC2A" stroke-width="0.5" stroke-linejoin="round"/>
<path d="M297.711 159.401H396.711L297.711 238.601V159.401Z" stroke="#FFCC2A" stroke-width="0.5" stroke-linejoin="round"/>
<path d="M198.711 1H297.711V80.2L198.711 1Z" stroke="#FFCC2A" stroke-width="0.5" stroke-linejoin="round"/>
<path d="M198.711 80.2002H297.711V159.4L198.711 80.2002Z" stroke="#FFCC2A" stroke-width="0.5" stroke-linejoin="round"/>
<path d="M297.711 80.2002H396.711V159.4L297.711 80.2002Z" stroke="#FFCC2A" stroke-width="0.5" stroke-linejoin="round"/>
<path d="M297.711 80.201L396.711 1.00098H297.711V80.201Z" stroke="#FFCC2A" stroke-width="0.5" stroke-linejoin="round"/>
<path d="M0.710938 317.8L99.7109 397V317.8H0.710938Z" stroke="#FFCC2A" stroke-width="0.5" stroke-linejoin="round"/>
<path d="M99.7109 397.001H0.710938L99.7109 476.201V397.001Z" stroke="#FFCC2A" stroke-width="0.5" stroke-linejoin="round"/>
<path d="M198.711 397.001H99.7109L198.711 476.201V397.001Z" stroke="#FFCC2A" stroke-width="0.5" stroke-linejoin="round"/>
<path d="M198.711 317.8L99.7109 397H198.711V317.8Z" stroke="#FFCC2A" stroke-width="0.5" stroke-linejoin="round"/>
<path d="M0.710938 476.201V634.601L198.711 476.201H0.710938Z" stroke="#FFCC2A" stroke-width="0.5" stroke-linejoin="round"/>
<path d="M297.711 476.2H198.711L297.711 555.4V476.2Z" stroke="#FFCC2A" stroke-width="0.5" stroke-linejoin="round"/>
<path d="M198.711 634.601L297.711 555.401H198.711V634.601Z" stroke="#FFCC2A" stroke-width="0.5" stroke-linejoin="round"/>
<path d="M396.711 555.401H297.711L396.711 634.601V555.401Z" stroke="#FFCC2A" stroke-width="0.5" stroke-linejoin="round"/>
<path d="M396.711 555.4L297.711 476.2V555.4H396.711Z" stroke="#FFCC2A" stroke-width="0.5" stroke-linejoin="round"/>
<path d="M297.711 317.8V397L198.711 317.8H297.711Z" stroke="#FFCC2A" stroke-width="0.5" stroke-linejoin="round"/>
<path d="M198.711 397.001H248.211L198.711 436.601V397.001Z" stroke="#FFCC2A" stroke-width="0.5" stroke-linejoin="round"/>
<path d="M248.211 476.201L198.711 436.601H248.211V476.201Z" stroke="#FFCC2A" stroke-width="0.5" stroke-linejoin="round"/>
<path d="M297.711 436.601V476.201H248.211L297.711 436.601Z" stroke="#FFCC2A" stroke-width="0.5" stroke-linejoin="round"/>
<path d="M297.711 436.601L248.211 397.001V436.601H297.711Z" stroke="#FFCC2A" stroke-width="0.5" stroke-linejoin="round"/>
<path d="M396.711 397.001H297.711V476.201L396.711 397.001Z" stroke="#FFCC2A" stroke-width="0.5" stroke-linejoin="round"/>
<path d="M396.711 317.8L297.711 397H396.711V317.8Z" stroke="#FFCC2A" stroke-width="0.5" stroke-linejoin="round"/>
<path d="M396.711 317.8L495.711 397V317.8H396.711Z" stroke="#FFCC2A" stroke-width="0.5" stroke-linejoin="round"/>
<path d="M495.711 476.201V397.001H396.711L495.711 476.201Z" stroke="#FFCC2A" stroke-width="0.5" stroke-linejoin="round"/>
<path d="M495.711 397.001V476.201H594.711L495.711 397.001Z" stroke="#FFCC2A" stroke-width="0.5" stroke-linejoin="round"/>
<path d="M495.711 317.8H594.711V397L495.711 317.8Z" stroke="#FFCC2A" stroke-width="0.5" stroke-linejoin="round"/>
<path d="M396.711 555.4V476.2L495.711 555.4H396.711Z" stroke="#FFCC2A" stroke-width="0.5" stroke-linejoin="round"/>
<path d="M396.711 555.401H495.711L396.711 634.601V555.401Z" stroke="#FFCC2A" stroke-width="0.5" stroke-linejoin="round"/>
<path d="M495.711 555.401H594.711V634.601L495.711 555.401Z" stroke="#FFCC2A" stroke-width="0.5" stroke-linejoin="round"/>
<path d="M594.711 476.2H495.711V555.4L594.711 476.2Z" stroke="#FFCC2A" stroke-width="0.5" stroke-linejoin="round"/>
<path d="M792.711 634.601V476.201L594.711 634.601H792.711Z" stroke="#FFCC2A" stroke-width="0.5" stroke-linejoin="round"/>
<path d="M693.711 317.8V397H594.711L693.711 317.8Z" stroke="#FFCC2A" stroke-width="0.5" stroke-linejoin="round"/>
<path d="M594.711 476.201V397.001L693.711 476.201H594.711Z" stroke="#FFCC2A" stroke-width="0.5" stroke-linejoin="round"/>
<path d="M792.711 476.201H693.711L792.711 397.001V476.201Z" stroke="#FFCC2A" stroke-width="0.5" stroke-linejoin="round"/>
<path d="M693.711 397L792.711 317.8H693.711V397Z" stroke="#FFCC2A" stroke-width="0.5" stroke-linejoin="round"/>
<path d="M495.711 1.00098H396.711V80.201L495.711 1.00098Z" stroke="#FFCC2A" stroke-width="0.5" stroke-linejoin="round"/>
<path d="M495.711 159.4H396.711V80.2002L495.711 159.4Z" stroke="#FFCC2A" stroke-width="0.5" stroke-linejoin="round"/>
<path d="M594.711 80.2002V159.4L495.711 80.2002H594.711Z" stroke="#FFCC2A" stroke-width="0.5" stroke-linejoin="round"/>
<path d="M495.711 1.00098H594.711L495.711 80.201V1.00098Z" stroke="#FFCC2A" stroke-width="0.5" stroke-linejoin="round"/>
<path d="M495.711 238.601H396.711L495.711 159.401V238.601Z" stroke="#FFCC2A" stroke-width="0.5" stroke-linejoin="round"/>
<path d="M396.711 238.601H446.211V278.201L396.711 238.601Z" stroke="#FFCC2A" stroke-width="0.5" stroke-linejoin="round"/>
<path d="M446.211 278.201H396.711L446.211 317.801V278.201Z" stroke="#FFCC2A" stroke-width="0.5" stroke-linejoin="round"/>
<path d="M446.211 317.801V278.201L495.711 317.801H446.211Z" stroke="#FFCC2A" stroke-width="0.5" stroke-linejoin="round"/>
<path d="M495.711 278.201L446.211 238.601V278.201H495.711Z" stroke="#FFCC2A" stroke-width="0.5" stroke-linejoin="round"/>
<path d="M495.711 238.601V317.801H594.711L495.711 238.601Z" stroke="#FFCC2A" stroke-width="0.5" stroke-linejoin="round"/>
<path d="M495.711 238.601H594.711L495.711 159.401V238.601Z" stroke="#FFCC2A" stroke-width="0.5" stroke-linejoin="round"/>
<path d="M693.711 159.401V238.601L594.711 159.401H693.711Z" stroke="#FFCC2A" stroke-width="0.5" stroke-linejoin="round"/>
<path d="M594.711 238.601L693.711 317.801V238.601H594.711Z" stroke="#FFCC2A" stroke-width="0.5" stroke-linejoin="round"/>
<path d="M693.711 317.801L792.711 238.601V317.801H693.711Z" stroke="#FFCC2A" stroke-width="0.5" stroke-linejoin="round"/>
<path d="M792.711 238.601L693.711 159.401H792.711V238.601Z" stroke="#FFCC2A" stroke-width="0.5" stroke-linejoin="round"/>
<path d="M594.711 159.4L792.711 1L594.711 1.00001V159.4Z" stroke="#FFCC2A" stroke-width="0.5" stroke-linejoin="round"/>
</svg>
