<svg width="513" height="1175" viewBox="0 0 513 1175" fill="none" xmlns="http://www.w3.org/2000/svg">
<path d="M511.573 662.185L511.714 588.979L447.369 662.058L511.573 662.185Z" stroke="#FFCC2A" stroke-opacity="0.54" stroke-width="0.5" stroke-linejoin="round"/>
<path d="M383.165 661.934L447.51 588.855L383.306 588.728L383.165 661.934Z" stroke="#FFCC2A" stroke-opacity="0.54" stroke-width="0.5" stroke-linejoin="round"/>
<path d="M383.164 661.935L447.227 735.267L383.023 735.141L383.164 661.935Z" stroke="#FFCC2A" stroke-opacity="0.54" stroke-width="0.5" stroke-linejoin="round"/>
<path d="M511.431 735.392L511.572 662.187L447.227 735.266L511.431 735.392Z" stroke="#FFCC2A" stroke-opacity="0.54" stroke-width="0.5" stroke-linejoin="round"/>
<path d="M383.306 588.73L318.961 661.809L319.102 588.603L383.306 588.73Z" stroke="#FFCC2A" stroke-opacity="0.54" stroke-width="0.5" stroke-linejoin="round"/>
<path d="M318.961 661.804L254.757 661.678L319.102 588.599L318.961 661.804Z" stroke="#FFCC2A" stroke-opacity="0.54" stroke-width="0.5" stroke-linejoin="round"/>
<path d="M318.819 735.012L318.96 661.806L254.757 661.68L318.819 735.012Z" stroke="#FFCC2A" stroke-opacity="0.54" stroke-width="0.5" stroke-linejoin="round"/>
<path d="M383.164 661.931L383.023 735.136L318.961 661.805L383.164 661.931Z" stroke="#FFCC2A" stroke-opacity="0.54" stroke-width="0.5" stroke-linejoin="round"/>
<path d="M382.882 808.344L318.678 808.218L383.023 735.139L382.882 808.344Z" stroke="#FFCC2A" stroke-opacity="0.54" stroke-width="0.5" stroke-linejoin="round"/>
<path d="M254.474 808.093L318.819 735.014L254.615 734.887L254.474 808.093Z" stroke="#FFCC2A" stroke-opacity="0.54" stroke-width="0.5" stroke-linejoin="round"/>
<path d="M318.538 881.421L254.475 808.089L254.334 881.295L318.538 881.421Z" stroke="#FFCC2A" stroke-opacity="0.54" stroke-width="0.5" stroke-linejoin="round"/>
<path d="M382.742 881.551L318.679 808.219L318.538 881.425L382.742 881.551Z" stroke="#FFCC2A" stroke-opacity="0.54" stroke-width="0.5" stroke-linejoin="round"/>
<path d="M447.227 735.265L511.29 808.597L447.086 808.471L447.227 735.265Z" stroke="#FFCC2A" stroke-opacity="0.54" stroke-width="0.5" stroke-linejoin="round"/>
<path d="M447.086 808.469L447.227 735.264L383.023 735.137L447.086 808.469Z" stroke="#FFCC2A" stroke-opacity="0.54" stroke-width="0.5" stroke-linejoin="round"/>
<path d="M414.913 845.01L414.984 808.407L447.015 845.073L414.913 845.01Z" stroke="#FFCC2A" stroke-opacity="0.54" stroke-width="0.5" stroke-linejoin="round"/>
<path d="M382.882 808.345L414.983 808.408L414.913 845.011L382.882 808.345Z" stroke="#FFCC2A" stroke-opacity="0.54" stroke-width="0.5" stroke-linejoin="round"/>
<path d="M414.844 881.612L414.914 845.009L382.742 881.548L414.844 881.612Z" stroke="#FFCC2A" stroke-opacity="0.54" stroke-width="0.5" stroke-linejoin="round"/>
<path d="M414.844 881.611L414.914 845.008L447.016 845.071L414.844 881.611Z" stroke="#FFCC2A" stroke-opacity="0.54" stroke-width="0.5" stroke-linejoin="round"/>
<path d="M511.148 881.802L446.944 881.675L447.085 808.47L511.148 881.802Z" stroke="#FFCC2A" stroke-opacity="0.54" stroke-width="0.5" stroke-linejoin="round"/>
<path d="M190.553 661.553L190.694 588.348L254.898 588.474L190.553 661.553Z" stroke="#FFCC2A" stroke-opacity="0.54" stroke-width="0.5" stroke-linejoin="round"/>
<path d="M190.553 661.553L126.49 588.221L190.694 588.347L190.553 661.553Z" stroke="#FFCC2A" stroke-opacity="0.54" stroke-width="0.5" stroke-linejoin="round"/>
<path d="M190.411 734.761L190.553 661.556L126.349 661.43L190.411 734.761Z" stroke="#FFCC2A" stroke-opacity="0.54" stroke-width="0.5" stroke-linejoin="round"/>
<path d="M190.553 661.555L190.412 734.76L254.615 734.887L190.553 661.555Z" stroke="#FFCC2A" stroke-opacity="0.54" stroke-width="0.5" stroke-linejoin="round"/>
<path d="M126.49 588.219L-2.19983 734.377L-1.91761 587.966L126.49 588.219Z" stroke="#FFCC2A" stroke-opacity="0.54" stroke-width="0.5" stroke-linejoin="round"/>
<path d="M62.0034 734.506L126.066 807.838L61.8623 807.712L62.0034 734.506Z" stroke="#FFCC2A" stroke-opacity="0.54" stroke-width="0.5" stroke-linejoin="round"/>
<path d="M-2.34031 807.587L-2.1992 734.381L62.0046 734.508L-2.34031 807.587Z" stroke="#FFCC2A" stroke-opacity="0.54" stroke-width="0.5" stroke-linejoin="round"/>
<path d="M-2.48177 880.789L61.722 880.915L61.8631 807.71L-2.48177 880.789Z" stroke="#FFCC2A" stroke-opacity="0.54" stroke-width="0.5" stroke-linejoin="round"/>
<path d="M125.926 881.046L61.7221 880.92L126.067 807.84L125.926 881.046Z" stroke="#FFCC2A" stroke-opacity="0.54" stroke-width="0.5" stroke-linejoin="round"/>
<path d="M190.411 734.76L254.615 734.887L254.474 808.092L190.411 734.76Z" stroke="#FFCC2A" stroke-opacity="0.54" stroke-width="0.5" stroke-linejoin="round"/>
<path d="M190.272 807.963L190.413 734.758L126.068 807.837L190.272 807.963Z" stroke="#FFCC2A" stroke-opacity="0.54" stroke-width="0.5" stroke-linejoin="round"/>
<path d="M190.271 807.966L126.067 807.839L125.926 881.045L190.271 807.966Z" stroke="#FFCC2A" stroke-opacity="0.54" stroke-width="0.5" stroke-linejoin="round"/>
<path d="M190.271 807.964L254.334 881.296L254.475 808.091L190.271 807.964Z" stroke="#FFCC2A" stroke-opacity="0.54" stroke-width="0.5" stroke-linejoin="round"/>
<path d="M222.161 917.837L222.232 881.234L254.333 881.297L222.161 917.837Z" stroke="#FFCC2A" stroke-opacity="0.54" stroke-width="0.5" stroke-linejoin="round"/>
<path d="M190.13 881.172L190.059 917.774L222.231 881.235L190.13 881.172Z" stroke="#FFCC2A" stroke-opacity="0.54" stroke-width="0.5" stroke-linejoin="round"/>
<path d="M222.09 954.438L189.988 954.375L222.161 917.836L222.09 954.438Z" stroke="#FFCC2A" stroke-opacity="0.54" stroke-width="0.5" stroke-linejoin="round"/>
<path d="M254.192 954.501L222.09 954.437L254.263 917.898L254.192 954.501Z" stroke="#FFCC2A" stroke-opacity="0.54" stroke-width="0.5" stroke-linejoin="round"/>
<path d="M190.13 881.173L189.988 954.378L125.785 954.252L190.13 881.173Z" stroke="#FFCC2A" stroke-opacity="0.54" stroke-width="0.5" stroke-linejoin="round"/>
<path d="M189.847 1027.58L189.988 954.375L125.784 954.248L189.847 1027.58Z" stroke="#FFCC2A" stroke-opacity="0.54" stroke-width="0.5" stroke-linejoin="round"/>
<path d="M254.051 1027.71L254.192 954.502L189.988 954.376L254.051 1027.71Z" stroke="#FFCC2A" stroke-opacity="0.54" stroke-width="0.5" stroke-linejoin="round"/>
<path d="M125.926 881.042L125.785 954.248L61.5808 954.121L125.926 881.042Z" stroke="#FFCC2A" stroke-opacity="0.54" stroke-width="0.5" stroke-linejoin="round"/>
<path d="M61.5806 954.123L-2.48212 880.791L-2.62323 953.996L61.5806 954.123Z" stroke="#FFCC2A" stroke-opacity="0.54" stroke-width="0.5" stroke-linejoin="round"/>
<path d="M-2.62233 953.998L61.5815 954.125L-2.76344 1027.2L-2.62233 953.998Z" stroke="#FFCC2A" stroke-opacity="0.54" stroke-width="0.5" stroke-linejoin="round"/>
<path d="M61.4393 1027.33L125.643 1027.46L125.784 954.25L61.4393 1027.33Z" stroke="#FFCC2A" stroke-opacity="0.54" stroke-width="0.5" stroke-linejoin="round"/>
<path d="M125.644 1027.46L125.503 1100.66L61.4401 1027.33L125.644 1027.46Z" stroke="#FFCC2A" stroke-opacity="0.54" stroke-width="0.5" stroke-linejoin="round"/>
<path d="M-2.76379 1027.2L61.44 1027.33L61.2989 1100.53L-2.76379 1027.2Z" stroke="#FFCC2A" stroke-opacity="0.54" stroke-width="0.5" stroke-linejoin="round"/>
<path d="M61.2986 1100.53L-2.9052 1100.41L-3.04631 1173.61L61.2986 1100.53Z" stroke="#FFCC2A" stroke-opacity="0.54" stroke-width="0.5" stroke-linejoin="round"/>
<path d="M125.503 1100.66L125.361 1173.86L61.2987 1100.53L125.503 1100.66Z" stroke="#FFCC2A" stroke-opacity="0.54" stroke-width="0.5" stroke-linejoin="round"/>
<path d="M254.052 1027.71L189.848 1027.58L253.911 1100.91L254.052 1027.71Z" stroke="#FFCC2A" stroke-opacity="0.54" stroke-width="0.5" stroke-linejoin="round"/>
<path d="M125.644 1027.46L125.503 1100.66L189.707 1100.79L125.644 1027.46Z" stroke="#FFCC2A" stroke-opacity="0.54" stroke-width="0.5" stroke-linejoin="round"/>
<path d="M189.707 1100.79L189.565 1173.99L125.362 1173.87L189.707 1100.79Z" stroke="#FFCC2A" stroke-opacity="0.54" stroke-width="0.5" stroke-linejoin="round"/>
<path d="M253.91 1100.92L253.769 1174.12L189.566 1173.99L253.91 1100.92Z" stroke="#FFCC2A" stroke-opacity="0.54" stroke-width="0.5" stroke-linejoin="round"/>
<path d="M446.945 881.677L511.008 955.009L446.804 954.883L446.945 881.677Z" stroke="#FFCC2A" stroke-opacity="0.54" stroke-width="0.5" stroke-linejoin="round"/>
<path d="M446.804 954.884L382.6 954.758L446.945 881.678L446.804 954.884Z" stroke="#FFCC2A" stroke-opacity="0.54" stroke-width="0.5" stroke-linejoin="round"/>
<path d="M382.459 1027.96L446.804 954.881L382.6 954.754L382.459 1027.96Z" stroke="#FFCC2A" stroke-opacity="0.54" stroke-width="0.5" stroke-linejoin="round"/>
<path d="M510.867 1028.21L446.663 1028.09L511.008 955.006L510.867 1028.21Z" stroke="#FFCC2A" stroke-opacity="0.54" stroke-width="0.5" stroke-linejoin="round"/>
<path d="M382.741 881.548L382.6 954.753L318.396 954.627L382.741 881.548Z" stroke="#FFCC2A" stroke-opacity="0.54" stroke-width="0.5" stroke-linejoin="round"/>
<path d="M318.396 954.628L254.192 954.502L318.537 881.423L318.396 954.628Z" stroke="#FFCC2A" stroke-opacity="0.54" stroke-width="0.5" stroke-linejoin="round"/>
<path d="M254.192 954.504L318.255 1027.84L318.396 954.631L254.192 954.504Z" stroke="#FFCC2A" stroke-opacity="0.54" stroke-width="0.5" stroke-linejoin="round"/>
<path d="M382.459 1027.96L318.255 1027.83L382.6 954.756L382.459 1027.96Z" stroke="#FFCC2A" stroke-opacity="0.54" stroke-width="0.5" stroke-linejoin="round"/>
<path d="M382.317 1101.17L382.458 1027.96L318.255 1027.84L382.317 1101.17Z" stroke="#FFCC2A" stroke-opacity="0.54" stroke-width="0.5" stroke-linejoin="round"/>
<path d="M318.254 1027.83L253.91 1100.91L318.113 1101.04L318.254 1027.83Z" stroke="#FFCC2A" stroke-opacity="0.54" stroke-width="0.5" stroke-linejoin="round"/>
<path d="M317.973 1174.25L253.769 1174.12L253.911 1100.91L317.973 1174.25Z" stroke="#FFCC2A" stroke-opacity="0.54" stroke-width="0.5" stroke-linejoin="round"/>
<path d="M318.114 1101.04L317.973 1174.24L382.177 1174.37L318.114 1101.04Z" stroke="#FFCC2A" stroke-opacity="0.54" stroke-width="0.5" stroke-linejoin="round"/>
<path d="M382.176 1174.37L510.584 1174.63L510.866 1028.21L382.176 1174.37Z" stroke="#FFCC2A" stroke-opacity="0.54" stroke-width="0.5" stroke-linejoin="round"/>
<path d="M511.619 75.2184L511.76 2.01285L447.415 75.092L511.619 75.2184Z" stroke="#FFCC2A" stroke-opacity="0.54" stroke-width="0.5" stroke-linejoin="round"/>
<path d="M383.211 74.9674L447.556 1.88822L383.353 1.76184L383.211 74.9674Z" stroke="#FFCC2A" stroke-opacity="0.54" stroke-width="0.5" stroke-linejoin="round"/>
<path d="M383.211 74.969L447.274 148.301L383.07 148.175L383.211 74.969Z" stroke="#FFCC2A" stroke-opacity="0.54" stroke-width="0.5" stroke-linejoin="round"/>
<path d="M511.478 148.426L511.619 75.2204L447.274 148.3L511.478 148.426Z" stroke="#FFCC2A" stroke-opacity="0.54" stroke-width="0.5" stroke-linejoin="round"/>
<path d="M383.352 1.76322L319.008 74.8424L319.149 1.63684L383.352 1.76322Z" stroke="#FFCC2A" stroke-opacity="0.54" stroke-width="0.5" stroke-linejoin="round"/>
<path d="M319.007 74.8379L254.804 74.7115L319.148 1.63236L319.007 74.8379Z" stroke="#FFCC2A" stroke-opacity="0.54" stroke-width="0.5" stroke-linejoin="round"/>
<path d="M318.866 148.045L319.007 74.8398L254.803 74.7134L318.866 148.045Z" stroke="#FFCC2A" stroke-opacity="0.54" stroke-width="0.5" stroke-linejoin="round"/>
<path d="M383.211 74.9646L383.07 148.17L319.007 74.8383L383.211 74.9646Z" stroke="#FFCC2A" stroke-opacity="0.54" stroke-width="0.5" stroke-linejoin="round"/>
<path d="M382.928 221.378L318.725 221.251L383.07 148.172L382.928 221.378Z" stroke="#FFCC2A" stroke-opacity="0.54" stroke-width="0.5" stroke-linejoin="round"/>
<path d="M254.521 221.127L318.866 148.047L254.662 147.921L254.521 221.127Z" stroke="#FFCC2A" stroke-opacity="0.54" stroke-width="0.5" stroke-linejoin="round"/>
<path d="M318.584 294.455L254.522 221.123L254.38 294.328L318.584 294.455Z" stroke="#FFCC2A" stroke-opacity="0.54" stroke-width="0.5" stroke-linejoin="round"/>
<path d="M382.788 294.585L318.725 221.253L318.584 294.459L382.788 294.585Z" stroke="#FFCC2A" stroke-opacity="0.54" stroke-width="0.5" stroke-linejoin="round"/>
<path d="M447.274 148.299L511.336 221.631L447.133 221.504L447.274 148.299Z" stroke="#FFCC2A" stroke-opacity="0.54" stroke-width="0.5" stroke-linejoin="round"/>
<path d="M447.132 221.503L447.274 148.297L383.07 148.171L447.132 221.503Z" stroke="#FFCC2A" stroke-opacity="0.54" stroke-width="0.5" stroke-linejoin="round"/>
<path d="M414.96 258.044L415.03 221.441L447.061 258.107L414.96 258.044Z" stroke="#FFCC2A" stroke-opacity="0.54" stroke-width="0.5" stroke-linejoin="round"/>
<path d="M382.928 221.378L415.03 221.441L414.959 258.044L382.928 221.378Z" stroke="#FFCC2A" stroke-opacity="0.54" stroke-width="0.5" stroke-linejoin="round"/>
<path d="M414.89 294.645L414.961 258.043L382.788 294.582L414.89 294.645Z" stroke="#FFCC2A" stroke-opacity="0.54" stroke-width="0.5" stroke-linejoin="round"/>
<path d="M414.89 294.645L414.961 258.042L447.063 258.105L414.89 294.645Z" stroke="#FFCC2A" stroke-opacity="0.54" stroke-width="0.5" stroke-linejoin="round"/>
<path d="M511.195 294.835L446.991 294.709L447.132 221.503L511.195 294.835Z" stroke="#FFCC2A" stroke-opacity="0.54" stroke-width="0.5" stroke-linejoin="round"/>
<path d="M190.6 74.5868L190.741 1.38123L254.945 1.5076L190.6 74.5868Z" stroke="#FFCC2A" stroke-opacity="0.54" stroke-width="0.5" stroke-linejoin="round"/>
<path d="M190.6 74.5867L126.537 1.25476L190.741 1.38114L190.6 74.5867Z" stroke="#FFCC2A" stroke-opacity="0.54" stroke-width="0.5" stroke-linejoin="round"/>
<path d="M190.458 147.795L190.599 74.5896L126.395 74.4633L190.458 147.795Z" stroke="#FFCC2A" stroke-opacity="0.54" stroke-width="0.5" stroke-linejoin="round"/>
<path d="M190.599 74.5884L190.458 147.794L254.662 147.92L190.599 74.5884Z" stroke="#FFCC2A" stroke-opacity="0.54" stroke-width="0.5" stroke-linejoin="round"/>
<path d="M126.537 1.25275L-2.15326 147.411L-1.87104 1L126.537 1.25275Z" stroke="#FFCC2A" stroke-opacity="0.54" stroke-width="0.5" stroke-linejoin="round"/>
<path d="M62.05 147.54L126.113 220.872L61.9089 220.746L62.05 147.54Z" stroke="#FFCC2A" stroke-opacity="0.54" stroke-width="0.5" stroke-linejoin="round"/>
<path d="M-2.29374 220.621L-2.15263 147.415L62.0512 147.542L-2.29374 220.621Z" stroke="#FFCC2A" stroke-opacity="0.54" stroke-width="0.5" stroke-linejoin="round"/>
<path d="M-2.4352 293.823L61.7686 293.949L61.9097 220.744L-2.4352 293.823Z" stroke="#FFCC2A" stroke-opacity="0.54" stroke-width="0.5" stroke-linejoin="round"/>
<path d="M125.972 294.08L61.7686 293.953L126.114 220.874L125.972 294.08Z" stroke="#FFCC2A" stroke-opacity="0.54" stroke-width="0.5" stroke-linejoin="round"/>
<path d="M190.458 147.794L254.662 147.92L254.521 221.126L190.458 147.794Z" stroke="#FFCC2A" stroke-opacity="0.54" stroke-width="0.5" stroke-linejoin="round"/>
<path d="M190.318 220.997L190.459 147.792L126.114 220.871L190.318 220.997Z" stroke="#FFCC2A" stroke-opacity="0.54" stroke-width="0.5" stroke-linejoin="round"/>
<path d="M190.317 220.999L126.114 220.873L125.973 294.078L190.317 220.999Z" stroke="#FFCC2A" stroke-opacity="0.54" stroke-width="0.5" stroke-linejoin="round"/>
<path d="M190.318 220.998L254.38 294.33L254.521 221.124L190.318 220.998Z" stroke="#FFCC2A" stroke-opacity="0.54" stroke-width="0.5" stroke-linejoin="round"/>
<path d="M222.208 330.871L222.278 294.268L254.38 294.331L222.208 330.871Z" stroke="#FFCC2A" stroke-opacity="0.54" stroke-width="0.5" stroke-linejoin="round"/>
<path d="M190.176 294.205L190.106 330.808L222.278 294.268L190.176 294.205Z" stroke="#FFCC2A" stroke-opacity="0.54" stroke-width="0.5" stroke-linejoin="round"/>
<path d="M222.137 367.472L190.035 367.409L222.207 330.869L222.137 367.472Z" stroke="#FFCC2A" stroke-opacity="0.54" stroke-width="0.5" stroke-linejoin="round"/>
<path d="M254.239 367.534L222.137 367.471L254.309 330.932L254.239 367.534Z" stroke="#FFCC2A" stroke-opacity="0.54" stroke-width="0.5" stroke-linejoin="round"/>
<path d="M190.176 294.206L190.035 367.412L125.831 367.286L190.176 294.206Z" stroke="#FFCC2A" stroke-opacity="0.54" stroke-width="0.5" stroke-linejoin="round"/>
<path d="M189.894 440.614L190.035 367.408L125.831 367.282L189.894 440.614Z" stroke="#FFCC2A" stroke-opacity="0.54" stroke-width="0.5" stroke-linejoin="round"/>
<path d="M254.098 440.742L254.239 367.536L190.035 367.41L254.098 440.742Z" stroke="#FFCC2A" stroke-opacity="0.54" stroke-width="0.5" stroke-linejoin="round"/>
<path d="M125.972 294.076L125.831 367.281L61.6274 367.155L125.972 294.076Z" stroke="#FFCC2A" stroke-opacity="0.54" stroke-width="0.5" stroke-linejoin="round"/>
<path d="M61.6271 367.156L-2.43555 293.824L-2.57666 367.03L61.6271 367.156Z" stroke="#FFCC2A" stroke-opacity="0.54" stroke-width="0.5" stroke-linejoin="round"/>
<path d="M-2.57576 367.032L61.628 367.158L-2.71687 440.238L-2.57576 367.032Z" stroke="#FFCC2A" stroke-opacity="0.54" stroke-width="0.5" stroke-linejoin="round"/>
<path d="M61.4858 440.363L125.69 440.489L125.831 367.283L61.4858 440.363Z" stroke="#FFCC2A" stroke-opacity="0.54" stroke-width="0.5" stroke-linejoin="round"/>
<path d="M125.69 440.491L125.549 513.697L61.4867 440.365L125.69 440.491Z" stroke="#FFCC2A" stroke-opacity="0.54" stroke-width="0.5" stroke-linejoin="round"/>
<path d="M-2.71722 440.234L61.4866 440.361L61.3455 513.566L-2.71722 440.234Z" stroke="#FFCC2A" stroke-opacity="0.54" stroke-width="0.5" stroke-linejoin="round"/>
<path d="M61.3452 513.568L-2.85863 513.442L-2.99974 586.647L61.3452 513.568Z" stroke="#FFCC2A" stroke-opacity="0.54" stroke-width="0.5" stroke-linejoin="round"/>
<path d="M125.549 513.693L125.408 586.898L61.3453 513.567L125.549 513.693Z" stroke="#FFCC2A" stroke-opacity="0.54" stroke-width="0.5" stroke-linejoin="round"/>
<path d="M254.098 440.741L189.895 440.615L253.957 513.947L254.098 440.741Z" stroke="#FFCC2A" stroke-opacity="0.54" stroke-width="0.5" stroke-linejoin="round"/>
<path d="M125.691 440.489L125.549 513.695L189.753 513.821L125.691 440.489Z" stroke="#FFCC2A" stroke-opacity="0.54" stroke-width="0.5" stroke-linejoin="round"/>
<path d="M189.753 513.823L189.612 587.029L125.408 586.902L189.753 513.823Z" stroke="#FFCC2A" stroke-opacity="0.54" stroke-width="0.5" stroke-linejoin="round"/>
<path d="M253.957 513.949L253.816 587.154L189.612 587.028L253.957 513.949Z" stroke="#FFCC2A" stroke-opacity="0.54" stroke-width="0.5" stroke-linejoin="round"/>
<path d="M446.992 294.711L511.055 368.043L446.851 367.916L446.992 294.711Z" stroke="#FFCC2A" stroke-opacity="0.54" stroke-width="0.5" stroke-linejoin="round"/>
<path d="M446.851 367.918L382.647 367.791L446.992 294.712L446.851 367.918Z" stroke="#FFCC2A" stroke-opacity="0.54" stroke-width="0.5" stroke-linejoin="round"/>
<path d="M382.505 440.993L446.85 367.914L382.647 367.788L382.505 440.993Z" stroke="#FFCC2A" stroke-opacity="0.54" stroke-width="0.5" stroke-linejoin="round"/>
<path d="M510.913 441.245L446.709 441.119L511.054 368.04L510.913 441.245Z" stroke="#FFCC2A" stroke-opacity="0.54" stroke-width="0.5" stroke-linejoin="round"/>
<path d="M382.788 294.581L382.647 367.787L318.443 367.661L382.788 294.581Z" stroke="#FFCC2A" stroke-opacity="0.54" stroke-width="0.5" stroke-linejoin="round"/>
<path d="M318.443 367.662L254.239 367.536L318.584 294.456L318.443 367.662Z" stroke="#FFCC2A" stroke-opacity="0.54" stroke-width="0.5" stroke-linejoin="round"/>
<path d="M254.239 367.538L318.301 440.87L318.443 367.664L254.239 367.538Z" stroke="#FFCC2A" stroke-opacity="0.54" stroke-width="0.5" stroke-linejoin="round"/>
<path d="M382.505 440.995L318.302 440.868L382.646 367.789L382.505 440.995Z" stroke="#FFCC2A" stroke-opacity="0.54" stroke-width="0.5" stroke-linejoin="round"/>
<path d="M382.364 514.202L382.505 440.997L318.301 440.87L382.364 514.202Z" stroke="#FFCC2A" stroke-opacity="0.54" stroke-width="0.5" stroke-linejoin="round"/>
<path d="M318.301 440.866L253.956 513.945L318.16 514.071L318.301 440.866Z" stroke="#FFCC2A" stroke-opacity="0.54" stroke-width="0.5" stroke-linejoin="round"/>
<path d="M318.02 587.279L253.816 587.153L253.957 513.947L318.02 587.279Z" stroke="#FFCC2A" stroke-opacity="0.54" stroke-width="0.5" stroke-linejoin="round"/>
<path d="M318.161 514.072L318.02 587.277L382.224 587.404L318.161 514.072Z" stroke="#FFCC2A" stroke-opacity="0.54" stroke-width="0.5" stroke-linejoin="round"/>
<path d="M382.223 587.406L510.63 587.659L510.913 441.248L382.223 587.406Z" stroke="#FFCC2A" stroke-opacity="0.54" stroke-width="0.5" stroke-linejoin="round"/>
</svg>
