<svg width="800" height="637" viewBox="0 0 800 637" fill="none" xmlns="http://www.w3.org/2000/svg">
<path d="M204.711 1L6.71094 159.4H204.711V1Z" stroke="#FFCC2A" stroke-width="0.5" stroke-linejoin="round"/>
<path d="M105.711 159.401H6.71094L105.711 238.601V159.401Z" stroke="#FFCC2A" stroke-width="0.5" stroke-linejoin="round"/>
<path d="M6.71094 317.8V238.6H105.711L6.71094 317.8Z" stroke="#FFCC2A" stroke-width="0.5" stroke-linejoin="round"/>
<path d="M204.711 317.8L105.711 238.6H204.711V317.8Z" stroke="#FFCC2A" stroke-width="0.5" stroke-linejoin="round"/>
<path d="M204.711 159.401L105.711 238.601H204.711V159.401Z" stroke="#FFCC2A" stroke-width="0.5" stroke-linejoin="round"/>
<path d="M204.711 159.401V238.601H303.711L204.711 159.401Z" stroke="#FFCC2A" stroke-width="0.5" stroke-linejoin="round"/>
<path d="M254.211 278.201H204.711V238.601L254.211 278.201Z" stroke="#FFCC2A" stroke-width="0.5" stroke-linejoin="round"/>
<path d="M204.711 278.2H254.211V317.8L204.711 278.2Z" stroke="#FFCC2A" stroke-width="0.5" stroke-linejoin="round"/>
<path d="M303.711 278.2H254.211V317.8L303.711 278.2Z" stroke="#FFCC2A" stroke-width="0.5" stroke-linejoin="round"/>
<path d="M303.711 238.601H254.211V278.201L303.711 238.601Z" stroke="#FFCC2A" stroke-width="0.5" stroke-linejoin="round"/>
<path d="M402.711 317.8L303.711 238.6V317.8H402.711Z" stroke="#FFCC2A" stroke-width="0.5" stroke-linejoin="round"/>
<path d="M303.711 159.401H402.711L303.711 238.601V159.401Z" stroke="#FFCC2A" stroke-width="0.5" stroke-linejoin="round"/>
<path d="M211.21 1H1H304V80L211.21 1Z" stroke="#FFCC2A" stroke-width="0.5" stroke-linejoin="round"/>
<path d="M204.711 80.2002H303.711V159.4L204.711 80.2002Z" stroke="#FFCC2A" stroke-width="0.5" stroke-linejoin="round"/>
<path d="M303.711 80.2002H402.711V159.4L303.711 80.2002Z" stroke="#FFCC2A" stroke-width="0.5" stroke-linejoin="round"/>
<path d="M303.711 80.201L402.711 1.00098H303.711V80.201Z" stroke="#FFCC2A" stroke-width="0.5" stroke-linejoin="round"/>
<path d="M6.71094 317.8L105.711 397V317.8H6.71094Z" stroke="#FFCC2A" stroke-width="0.5" stroke-linejoin="round"/>
<path d="M105.711 397.001H6.71094L105.711 476.201V397.001Z" stroke="#FFCC2A" stroke-width="0.5" stroke-linejoin="round"/>
<path d="M204.711 397.001H105.711L204.711 476.201V397.001Z" stroke="#FFCC2A" stroke-width="0.5" stroke-linejoin="round"/>
<path d="M204.711 317.8L105.711 397H204.711V317.8Z" stroke="#FFCC2A" stroke-width="0.5" stroke-linejoin="round"/>
<path d="M1 475.696H205L1 636V475.696ZM1 475.696V1" stroke="#FFCC2A" stroke-width="0.5" stroke-linejoin="round"/>
<path d="M303.711 476.2H204.711L303.711 555.4V476.2Z" stroke="#FFCC2A" stroke-width="0.5" stroke-linejoin="round"/>
<path d="M204.711 634.601L303.711 555.401H204.711V634.601Z" stroke="#FFCC2A" stroke-width="0.5" stroke-linejoin="round"/>
<path d="M402.711 555.401H303.711L402.711 634.601V555.401Z" stroke="#FFCC2A" stroke-width="0.5" stroke-linejoin="round"/>
<path d="M402.711 555.4L303.711 476.2V555.4H402.711Z" stroke="#FFCC2A" stroke-width="0.5" stroke-linejoin="round"/>
<path d="M303.711 317.8V397L204.711 317.8H303.711Z" stroke="#FFCC2A" stroke-width="0.5" stroke-linejoin="round"/>
<path d="M204.711 397.001H254.211L204.711 436.601V397.001Z" stroke="#FFCC2A" stroke-width="0.5" stroke-linejoin="round"/>
<path d="M1 531H50.5L1 570.6V531Z" stroke="#FFCC2A" stroke-width="0.5" stroke-linejoin="round"/>
<path d="M254.211 476.201L204.711 436.601H254.211V476.201Z" stroke="#FFCC2A" stroke-width="0.5" stroke-linejoin="round"/>
<path d="M157.5 594.2L108 554.6H157.5V594.2Z" stroke="#FFCC2A" stroke-width="0.5" stroke-linejoin="round"/>
<path d="M303.711 436.601V476.201H254.211L303.711 436.601Z" stroke="#FFCC2A" stroke-width="0.5" stroke-linejoin="round"/>
<path d="M157 594.6V634.2H107.5L157 594.6Z" stroke="#FFCC2A" stroke-width="0.5" stroke-linejoin="round"/>
<path d="M303.711 436.601L254.211 397.001V436.601H303.711Z" stroke="#FFCC2A" stroke-width="0.5" stroke-linejoin="round"/>
<path d="M100.5 531.6L51 492V531.6H100.5Z" stroke="#FFCC2A" stroke-width="0.5" stroke-linejoin="round"/>
<path d="M402.711 397.001H303.711V476.201L402.711 397.001Z" stroke="#FFCC2A" stroke-width="0.5" stroke-linejoin="round"/>
<path d="M402.711 317.8L303.711 397H402.711V317.8Z" stroke="#FFCC2A" stroke-width="0.5" stroke-linejoin="round"/>
<path d="M402.711 317.8L501.711 397V317.8H402.711Z" stroke="#FFCC2A" stroke-width="0.5" stroke-linejoin="round"/>
<path d="M501.711 476.201V397.001H402.711L501.711 476.201Z" stroke="#FFCC2A" stroke-width="0.5" stroke-linejoin="round"/>
<path d="M501.711 397.001V476.201H600.711L501.711 397.001Z" stroke="#FFCC2A" stroke-width="0.5" stroke-linejoin="round"/>
<path d="M501.711 317.8H600.711V397L501.711 317.8Z" stroke="#FFCC2A" stroke-width="0.5" stroke-linejoin="round"/>
<path d="M402.711 555.4V476.2L501.711 555.4H402.711Z" stroke="#FFCC2A" stroke-width="0.5" stroke-linejoin="round"/>
<path d="M402.711 555.401H501.711L402.711 634.601V555.401Z" stroke="#FFCC2A" stroke-width="0.5" stroke-linejoin="round"/>
<path d="M501.711 555.401H600.711V634.601L501.711 555.401Z" stroke="#FFCC2A" stroke-width="0.5" stroke-linejoin="round"/>
<path d="M600.711 476.2H501.711V555.4L600.711 476.2Z" stroke="#FFCC2A" stroke-width="0.5" stroke-linejoin="round"/>
<path d="M600.711 634.601L798.711 476.201V634.601H699.711H600.711ZM600.711 634.601H7" stroke="#FFCC2A" stroke-width="0.5" stroke-linejoin="round"/>
<path d="M699.711 317.8V397H600.711L699.711 317.8Z" stroke="#FFCC2A" stroke-width="0.5" stroke-linejoin="round"/>
<path d="M600.711 476.201V397.001L699.711 476.201H600.711Z" stroke="#FFCC2A" stroke-width="0.5" stroke-linejoin="round"/>
<path d="M798.711 476.201H699.711L798.711 318V476.201Z" stroke="#FFCC2A" stroke-width="0.5" stroke-linejoin="round"/>
<path d="M699.711 397L798.711 317.8H699.711V397Z" stroke="#FFCC2A" stroke-width="0.5" stroke-linejoin="round"/>
<path d="M501.711 1.00098H402.711V80.201L501.711 1.00098Z" stroke="#FFCC2A" stroke-width="0.5" stroke-linejoin="round"/>
<path d="M501.711 159.4H402.711V80.2002L501.711 159.4Z" stroke="#FFCC2A" stroke-width="0.5" stroke-linejoin="round"/>
<path d="M600.711 80.2002V159.4L501.711 80.2002H600.711Z" stroke="#FFCC2A" stroke-width="0.5" stroke-linejoin="round"/>
<path d="M501.711 1.00098H600.711L501.711 80.201V1.00098Z" stroke="#FFCC2A" stroke-width="0.5" stroke-linejoin="round"/>
<path d="M501.711 238.601H402.711L501.711 159.401V238.601Z" stroke="#FFCC2A" stroke-width="0.5" stroke-linejoin="round"/>
<path d="M402.711 238.601H452.211V278.201L402.711 238.601Z" stroke="#FFCC2A" stroke-width="0.5" stroke-linejoin="round"/>
<path d="M452.211 278.201H402.711L452.211 317.801V278.201Z" stroke="#FFCC2A" stroke-width="0.5" stroke-linejoin="round"/>
<path d="M452.211 317.801V278.201L501.711 317.801H452.211Z" stroke="#FFCC2A" stroke-width="0.5" stroke-linejoin="round"/>
<path d="M501.711 278.201L452.211 238.601V278.201H501.711Z" stroke="#FFCC2A" stroke-width="0.5" stroke-linejoin="round"/>
<path d="M501.711 238.601V317.801H600.711L501.711 238.601Z" stroke="#FFCC2A" stroke-width="0.5" stroke-linejoin="round"/>
<path d="M501.711 238.601H600.711L501.711 159.401V238.601Z" stroke="#FFCC2A" stroke-width="0.5" stroke-linejoin="round"/>
<path d="M699.711 159.401V238.601L600.711 159.401H699.711Z" stroke="#FFCC2A" stroke-width="0.5" stroke-linejoin="round"/>
<path d="M600.711 238.601L699.711 317.801V238.601H600.711Z" stroke="#FFCC2A" stroke-width="0.5" stroke-linejoin="round"/>
<path d="M699.711 317.801L798.711 238.601V317.801H699.711Z" stroke="#FFCC2A" stroke-width="0.5" stroke-linejoin="round"/>
<path d="M799 239L700 158.994L799 1V198.997V239Z" stroke="#FFCC2A" stroke-width="0.5" stroke-linejoin="round"/>
<path d="M600.711 159.4L798.711 1L600.711 1.00001V159.4Z" stroke="#FFCC2A" stroke-width="0.5" stroke-linejoin="round"/>
</svg>
