<svg width="796" height="639" viewBox="0 0 796 639" fill="none" xmlns="http://www.w3.org/2000/svg">
<mask id="mask0_513_402" style="mask-type:alpha" maskUnits="userSpaceOnUse" x="-1" y="-1" width="796" height="640">
<path d="M597.536 634.698L794.646 475.193L596.649 476.301L597.536 634.698Z" stroke="#FFCC2A" stroke-width="0.5" stroke-linejoin="round"/>
<path d="M695.648 475.746L794.646 475.192L695.205 396.548L695.648 475.746Z" stroke="#FFCC2A" stroke-width="0.5" stroke-linejoin="round"/>
<path d="M793.76 316.795L794.203 395.994L695.205 396.548L793.76 316.795Z" stroke="#FFCC2A" stroke-width="0.5" stroke-linejoin="round"/>
<path d="M595.763 317.903L695.205 396.548L596.206 397.102L595.763 317.903Z" stroke="#FFCC2A" stroke-width="0.5" stroke-linejoin="round"/>
<path d="M596.649 476.301L695.205 396.548L596.206 397.102L596.649 476.301Z" stroke="#FFCC2A" stroke-width="0.5" stroke-linejoin="round"/>
<path d="M596.65 476.3L596.206 397.102L497.208 397.655L596.65 476.3Z" stroke="#FFCC2A" stroke-width="0.5" stroke-linejoin="round"/>
<path d="M546.486 357.779L595.985 357.502L596.206 397.102L546.486 357.779Z" stroke="#FFCC2A" stroke-width="0.5" stroke-linejoin="round"/>
<path d="M595.985 357.503L546.486 357.78L546.264 318.18L595.985 357.503Z" stroke="#FFCC2A" stroke-width="0.5" stroke-linejoin="round"/>
<path d="M496.986 358.057L546.486 357.78L546.264 318.18L496.986 358.057Z" stroke="#FFCC2A" stroke-width="0.5" stroke-linejoin="round"/>
<path d="M497.208 397.656L546.707 397.379L546.486 357.779L497.208 397.656Z" stroke="#FFCC2A" stroke-width="0.5" stroke-linejoin="round"/>
<path d="M397.766 319.011L497.208 397.656L496.765 318.457L397.766 319.011Z" stroke="#FFCC2A" stroke-width="0.5" stroke-linejoin="round"/>
<path d="M497.651 476.855L398.653 477.408L497.208 397.656L497.651 476.855Z" stroke="#FFCC2A" stroke-width="0.5" stroke-linejoin="round"/>
<path d="M597.536 634.698L498.537 635.252L498.094 556.053L597.536 634.698Z" stroke="#FFCC2A" stroke-width="0.5" stroke-linejoin="round"/>
<path d="M597.093 555.5L498.094 556.053L497.651 476.855L597.093 555.5Z" stroke="#FFCC2A" stroke-width="0.5" stroke-linejoin="round"/>
<path d="M498.094 556.053L399.096 556.607L398.653 477.408L498.094 556.053Z" stroke="#FFCC2A" stroke-width="0.5" stroke-linejoin="round"/>
<path d="M498.094 556.053L399.539 635.806L498.537 635.252L498.094 556.053Z" stroke="#FFCC2A" stroke-width="0.5" stroke-linejoin="round"/>
<path d="M793.76 316.795L694.319 238.15L694.762 317.349L793.76 316.795Z" stroke="#FFCC2A" stroke-width="0.5" stroke-linejoin="round"/>
<path d="M694.319 238.15L793.317 237.596L693.875 158.951L694.319 238.15Z" stroke="#FFCC2A" stroke-width="0.5" stroke-linejoin="round"/>
<path d="M595.32 238.704L694.319 238.15L594.877 159.506L595.32 238.704Z" stroke="#FFCC2A" stroke-width="0.5" stroke-linejoin="round"/>
<path d="M595.763 317.903L694.319 238.15L595.32 238.704L595.763 317.903Z" stroke="#FFCC2A" stroke-width="0.5" stroke-linejoin="round"/>
<path d="M792.874 158.397L791.988 0L594.877 159.505L792.874 158.397Z" stroke="#FFCC2A" stroke-width="0.5" stroke-linejoin="round"/>
<path d="M495.878 160.059L594.877 159.505L495.435 80.8606L495.878 160.059Z" stroke="#FFCC2A" stroke-width="0.5" stroke-linejoin="round"/>
<path d="M593.991 1.10791L495.435 80.8606L594.434 80.3067L593.991 1.10791Z" stroke="#FFCC2A" stroke-width="0.5" stroke-linejoin="round"/>
<path d="M396.437 81.4143L495.435 80.8604L395.994 2.21555L396.437 81.4143Z" stroke="#FFCC2A" stroke-width="0.5" stroke-linejoin="round"/>
<path d="M396.437 81.4148L495.879 160.06L495.435 80.8608L396.437 81.4148Z" stroke="#FFCC2A" stroke-width="0.5" stroke-linejoin="round"/>
<path d="M496.765 318.457L496.322 239.258L595.763 317.903L496.765 318.457Z" stroke="#FFCC2A" stroke-width="0.5" stroke-linejoin="round"/>
<path d="M595.32 238.704L545.821 238.981L595.099 199.105L595.32 238.704Z" stroke="#FFCC2A" stroke-width="0.5" stroke-linejoin="round"/>
<path d="M545.378 159.782L595.099 199.105L545.599 199.382L545.378 159.782Z" stroke="#FFCC2A" stroke-width="0.5" stroke-linejoin="round"/>
<path d="M496.1 199.659L495.878 160.059L545.378 159.782L496.1 199.659Z" stroke="#FFCC2A" stroke-width="0.5" stroke-linejoin="round"/>
<path d="M496.1 199.659L545.821 238.981L545.599 199.382L496.1 199.659Z" stroke="#FFCC2A" stroke-width="0.5" stroke-linejoin="round"/>
<path d="M397.323 239.812L496.322 239.258L495.878 160.06L397.323 239.812Z" stroke="#FFCC2A" stroke-width="0.5" stroke-linejoin="round"/>
<path d="M397.766 319.01L496.322 239.258L397.323 239.812L397.766 319.01Z" stroke="#FFCC2A" stroke-width="0.5" stroke-linejoin="round"/>
<path d="M397.766 319.011L298.325 240.366L298.768 319.565L397.766 319.011Z" stroke="#FFCC2A" stroke-width="0.5" stroke-linejoin="round"/>
<path d="M297.882 161.167L298.325 240.366L397.323 239.812L297.882 161.167Z" stroke="#FFCC2A" stroke-width="0.5" stroke-linejoin="round"/>
<path d="M298.325 240.366L297.882 161.167L198.883 161.721L298.325 240.366Z" stroke="#FFCC2A" stroke-width="0.5" stroke-linejoin="round"/>
<path d="M298.768 319.564L199.769 320.118L199.326 240.92L298.768 319.564Z" stroke="#FFCC2A" stroke-width="0.5" stroke-linejoin="round"/>
<path d="M396.437 81.4146L396.88 160.613L297.439 81.9685L396.437 81.4146Z" stroke="#FFCC2A" stroke-width="0.5" stroke-linejoin="round"/>
<path d="M396.437 81.4146L297.438 81.9685L395.994 2.21582L396.437 81.4146Z" stroke="#FFCC2A" stroke-width="0.5" stroke-linejoin="round"/>
<path d="M297.438 81.9683L198.44 82.5222L197.997 3.32346L297.438 81.9683Z" stroke="#FFCC2A" stroke-width="0.5" stroke-linejoin="round"/>
<path d="M198.883 161.721L297.882 161.167L297.438 81.9683L198.883 161.721Z" stroke="#FFCC2A" stroke-width="0.5" stroke-linejoin="round"/>
<path d="M-2.94449e-05 4.43159L0.886255 162.829L197.997 3.32373L-2.94449e-05 4.43159Z" stroke="#FFCC2A" stroke-width="0.5" stroke-linejoin="round"/>
<path d="M100.771 320.673L100.328 241.474L199.326 240.92L100.771 320.673Z" stroke="#FFCC2A" stroke-width="0.5" stroke-linejoin="round"/>
<path d="M198.883 161.721L199.326 240.92L99.8847 162.275L198.883 161.721Z" stroke="#FFCC2A" stroke-width="0.5" stroke-linejoin="round"/>
<path d="M0.886262 162.829L99.8847 162.275L1.3294 242.028L0.886262 162.829Z" stroke="#FFCC2A" stroke-width="0.5" stroke-linejoin="round"/>
<path d="M100.328 241.474L1.77253 321.226L100.771 320.672L100.328 241.474Z" stroke="#FFCC2A" stroke-width="0.5" stroke-linejoin="round"/>
<path d="M300.54 636.36L399.539 635.806L399.096 556.607L300.54 636.36Z" stroke="#FFCC2A" stroke-width="0.5" stroke-linejoin="round"/>
<path d="M299.654 477.963L398.653 477.409L399.096 556.607L299.654 477.963Z" stroke="#FFCC2A" stroke-width="0.5" stroke-linejoin="round"/>
<path d="M201.099 557.715L200.656 478.516L300.097 557.161L201.099 557.715Z" stroke="#FFCC2A" stroke-width="0.5" stroke-linejoin="round"/>
<path d="M300.54 636.36L201.542 636.914L300.097 557.161L300.54 636.36Z" stroke="#FFCC2A" stroke-width="0.5" stroke-linejoin="round"/>
<path d="M299.211 398.763L398.209 398.209L299.654 477.962L299.211 398.763Z" stroke="#FFCC2A" stroke-width="0.5" stroke-linejoin="round"/>
<path d="M398.209 398.21L348.71 398.487L348.489 358.887L398.209 398.21Z" stroke="#FFCC2A" stroke-width="0.5" stroke-linejoin="round"/>
<path d="M348.489 358.887L397.988 358.61L348.267 319.288L348.489 358.887Z" stroke="#FFCC2A" stroke-width="0.5" stroke-linejoin="round"/>
<path d="M348.267 319.288L348.489 358.887L298.768 319.565L348.267 319.288Z" stroke="#FFCC2A" stroke-width="0.5" stroke-linejoin="round"/>
<path d="M298.989 359.164L348.71 398.487L348.489 358.887L298.989 359.164Z" stroke="#FFCC2A" stroke-width="0.5" stroke-linejoin="round"/>
<path d="M299.211 398.763L298.768 319.564L199.769 320.118L299.211 398.763Z" stroke="#FFCC2A" stroke-width="0.5" stroke-linejoin="round"/>
<path d="M299.211 398.763L200.213 399.317L299.654 477.962L299.211 398.763Z" stroke="#FFCC2A" stroke-width="0.5" stroke-linejoin="round"/>
<path d="M101.657 479.07L101.214 399.871L200.656 478.516L101.657 479.07Z" stroke="#FFCC2A" stroke-width="0.5" stroke-linejoin="round"/>
<path d="M200.213 399.317L100.771 320.672L101.214 399.871L200.213 399.317Z" stroke="#FFCC2A" stroke-width="0.5" stroke-linejoin="round"/>
<path d="M100.771 320.672L2.21568 400.425L1.77254 321.226L100.771 320.672Z" stroke="#FFCC2A" stroke-width="0.5" stroke-linejoin="round"/>
<path d="M2.21568 400.425L101.657 479.07L2.65883 479.624L2.21568 400.425Z" stroke="#FFCC2A" stroke-width="0.5" stroke-linejoin="round"/>
<path d="M200.656 478.516L3.5451 638.021L201.542 636.914L200.656 478.516Z" stroke="#FFCC2A" stroke-width="0.5" stroke-linejoin="round"/>
</mask>
<g mask="url(#mask0_513_402)">
<circle cx="373" cy="320" r="200" fill="#FFCC2A"/>
</g>
</svg>
