<svg width="635" height="505" viewBox="0 0 635 505" fill="none" xmlns="http://www.w3.org/2000/svg">
<path d="M162.59 0.648438L5.53003 126.296H162.59V0.648438Z" stroke="#FFCC2A" stroke-width="0.5" stroke-linejoin="round"/>
<path d="M84.0601 126.297H5.53003L84.0601 189.121V126.297Z" stroke="#FFCC2A" stroke-width="0.5" stroke-linejoin="round"/>
<path d="M5.53003 251.945V189.121H84.0601L5.53003 251.945Z" stroke="#FFCC2A" stroke-width="0.5" stroke-linejoin="round"/>
<path d="M162.59 251.945L84.0601 189.121H162.59V251.945Z" stroke="#FFCC2A" stroke-width="0.5" stroke-linejoin="round"/>
<path d="M162.59 126.297L84.0601 189.121H162.59V126.297Z" stroke="#FFCC2A" stroke-width="0.5" stroke-linejoin="round"/>
<path d="M162.59 126.297V189.121H241.12L162.59 126.297Z" stroke="#FFCC2A" stroke-width="0.5" stroke-linejoin="round"/>
<path d="M201.855 220.534H162.59V189.122L201.855 220.534Z" stroke="#FFCC2A" stroke-width="0.5" stroke-linejoin="round"/>
<path d="M162.59 220.533H201.855V251.945L162.59 220.533Z" stroke="#FFCC2A" stroke-width="0.5" stroke-linejoin="round"/>
<path d="M241.12 220.533H201.855V251.945L241.12 220.533Z" stroke="#FFCC2A" stroke-width="0.5" stroke-linejoin="round"/>
<path d="M241.12 189.122H201.855V220.534L241.12 189.122Z" stroke="#FFCC2A" stroke-width="0.5" stroke-linejoin="round"/>
<path d="M319.65 251.945L241.12 189.121V251.945H319.65Z" stroke="#FFCC2A" stroke-width="0.5" stroke-linejoin="round"/>
<path d="M241.12 126.297H319.65L241.12 189.121V126.297Z" stroke="#FFCC2A" stroke-width="0.5" stroke-linejoin="round"/>
<path d="M162.82 0.648438L241.35 63.3139V2.2349" stroke="#FFCC2A" stroke-width="0.5" stroke-linejoin="round"/>
<path d="M162.59 63.4727H241.12V126.296L162.59 63.4727Z" stroke="#FFCC2A" stroke-width="0.5" stroke-linejoin="round"/>
<path d="M241.12 63.4727H319.65V126.296L241.12 63.4727Z" stroke="#FFCC2A" stroke-width="0.5" stroke-linejoin="round"/>
<path d="M319.65 0.649414L241.12 63.4735V0.649414" stroke="#FFCC2A" stroke-width="0.5" stroke-linejoin="round"/>
<path d="M5.53003 251.944L84.0601 314.768V251.944H5.53003Z" stroke="#FFCC2A" stroke-width="0.5" stroke-linejoin="round"/>
<path d="M84.0601 314.77H5.53003L84.0601 377.594V314.77Z" stroke="#FFCC2A" stroke-width="0.5" stroke-linejoin="round"/>
<path d="M162.59 314.77H84.0601L162.59 377.594V314.77Z" stroke="#FFCC2A" stroke-width="0.5" stroke-linejoin="round"/>
<path d="M162.59 251.944L84.0601 314.768H162.59V251.944Z" stroke="#FFCC2A" stroke-width="0.5" stroke-linejoin="round"/>
<path d="M1 377.193V504.352L162.82 377.193H1Z" stroke="#FFCC2A" stroke-width="0.5" stroke-linejoin="round"/>
<path d="M241.12 377.593H162.59L241.12 440.417V377.593Z" stroke="#FFCC2A" stroke-width="0.5" stroke-linejoin="round"/>
<path d="M162.59 503.242L241.12 440.417H162.59V503.242Z" stroke="#FFCC2A" stroke-width="0.5" stroke-linejoin="round"/>
<path d="M319.65 440.417H241.12L319.65 503.242V440.417Z" stroke="#FFCC2A" stroke-width="0.5" stroke-linejoin="round"/>
<path d="M319.65 440.417L241.12 377.593V440.417H319.65Z" stroke="#FFCC2A" stroke-width="0.5" stroke-linejoin="round"/>
<path d="M241.12 251.944V314.768L162.59 251.944H241.12Z" stroke="#FFCC2A" stroke-width="0.5" stroke-linejoin="round"/>
<path d="M162.59 314.77H201.855L162.59 346.182V314.77Z" stroke="#FFCC2A" stroke-width="0.5" stroke-linejoin="round"/>
<path d="M1 421.062H40.265L1 452.474V421.062Z" stroke="#FFCC2A" stroke-width="0.5" stroke-linejoin="round"/>
<path d="M201.855 377.594L162.59 346.182H201.855V377.594Z" stroke="#FFCC2A" stroke-width="0.5" stroke-linejoin="round"/>
<path d="M125.141 471.194L85.876 439.782H125.141V471.194Z" stroke="#FFCC2A" stroke-width="0.5" stroke-linejoin="round"/>
<path d="M241.12 346.182V377.594H201.855L241.12 346.182Z" stroke="#FFCC2A" stroke-width="0.5" stroke-linejoin="round"/>
<path d="M124.744 471.512V502.924H85.4792L124.744 471.512Z" stroke="#FFCC2A" stroke-width="0.5" stroke-linejoin="round"/>
<path d="M241.12 346.182L201.855 314.77V346.182H241.12Z" stroke="#FFCC2A" stroke-width="0.5" stroke-linejoin="round"/>
<path d="M79.9267 421.538L40.6616 390.126V421.538H79.9267Z" stroke="#FFCC2A" stroke-width="0.5" stroke-linejoin="round"/>
<path d="M319.65 314.77H241.12V377.594L319.65 314.77Z" stroke="#FFCC2A" stroke-width="0.5" stroke-linejoin="round"/>
<path d="M319.65 251.944L241.12 314.768H319.65V251.944Z" stroke="#FFCC2A" stroke-width="0.5" stroke-linejoin="round"/>
<path d="M319.65 251.944L398.18 314.768V251.944H319.65Z" stroke="#FFCC2A" stroke-width="0.5" stroke-linejoin="round"/>
<path d="M398.18 377.594V314.77H319.65L398.18 377.594Z" stroke="#FFCC2A" stroke-width="0.5" stroke-linejoin="round"/>
<path d="M398.18 314.77V377.594H476.71L398.18 314.77Z" stroke="#FFCC2A" stroke-width="0.5" stroke-linejoin="round"/>
<path d="M398.18 251.944H476.71V314.768L398.18 251.944Z" stroke="#FFCC2A" stroke-width="0.5" stroke-linejoin="round"/>
<path d="M319.65 440.417V377.593L398.18 440.417H319.65Z" stroke="#FFCC2A" stroke-width="0.5" stroke-linejoin="round"/>
<path d="M319.65 440.417H398.18L319.65 503.242V440.417Z" stroke="#FFCC2A" stroke-width="0.5" stroke-linejoin="round"/>
<path d="M398.18 440.417H476.71V503.242L398.18 440.417Z" stroke="#FFCC2A" stroke-width="0.5" stroke-linejoin="round"/>
<path d="M476.71 377.593H398.18V440.417L476.71 377.593Z" stroke="#FFCC2A" stroke-width="0.5" stroke-linejoin="round"/>
<path d="M633.771 377.594L476.94 503.162" stroke="#FFCC2A" stroke-width="0.5" stroke-linejoin="round"/>
<path d="M555.241 251.944V314.768H476.71L555.241 251.944Z" stroke="#FFCC2A" stroke-width="0.5" stroke-linejoin="round"/>
<path d="M476.71 377.594V314.77L555.241 377.594H476.71Z" stroke="#FFCC2A" stroke-width="0.5" stroke-linejoin="round"/>
<path d="M633.771 377.594H555.241L633.771 252.104" stroke="#FFCC2A" stroke-width="0.5" stroke-linejoin="round"/>
<path d="M555.241 314.768L633.771 251.944H555.241V314.768Z" stroke="#FFCC2A" stroke-width="0.5" stroke-linejoin="round"/>
<path d="M398.18 0.649414L319.65 63.4735V0.649414" stroke="#FFCC2A" stroke-width="0.5" stroke-linejoin="round"/>
<path d="M398.18 126.296H319.65V63.4727L398.18 126.296Z" stroke="#FFCC2A" stroke-width="0.5" stroke-linejoin="round"/>
<path d="M476.71 63.4727V126.296L398.18 63.4727H476.71Z" stroke="#FFCC2A" stroke-width="0.5" stroke-linejoin="round"/>
<path d="M398.18 0.649414H476.71L398.18 63.4735V0.649414Z" stroke="#FFCC2A" stroke-width="0.5" stroke-linejoin="round"/>
<path d="M398.18 189.121H319.65L398.18 126.297V189.121Z" stroke="#FFCC2A" stroke-width="0.5" stroke-linejoin="round"/>
<path d="M319.65 189.122H358.915V220.534L319.65 189.122Z" stroke="#FFCC2A" stroke-width="0.5" stroke-linejoin="round"/>
<path d="M358.915 220.534H319.65L358.915 251.946V220.534Z" stroke="#FFCC2A" stroke-width="0.5" stroke-linejoin="round"/>
<path d="M358.916 251.946V220.534L398.181 251.946H358.916Z" stroke="#FFCC2A" stroke-width="0.5" stroke-linejoin="round"/>
<path d="M398.181 220.534L358.916 189.122V220.534H398.181Z" stroke="#FFCC2A" stroke-width="0.5" stroke-linejoin="round"/>
<path d="M398.18 189.122V251.946H476.71L398.18 189.122Z" stroke="#FFCC2A" stroke-width="0.5" stroke-linejoin="round"/>
<path d="M398.18 189.121H476.71L398.18 126.297V189.121Z" stroke="#FFCC2A" stroke-width="0.5" stroke-linejoin="round"/>
<path d="M555.241 126.297V189.121L476.71 126.297H555.241Z" stroke="#FFCC2A" stroke-width="0.5" stroke-linejoin="round"/>
<path d="M476.71 189.122L555.241 251.946V189.122H476.71Z" stroke="#FFCC2A" stroke-width="0.5" stroke-linejoin="round"/>
<path d="M555.241 251.946L633.771 189.122V251.946H555.241Z" stroke="#FFCC2A" stroke-width="0.5" stroke-linejoin="round"/>
<path d="M634 189.438L555.47 125.974L634 0.648438" stroke="#FFCC2A" stroke-width="0.5" stroke-linejoin="round"/>
<path d="M633.771 0.648438L476.71 126.296V0.648438" stroke="#FFCC2A" stroke-width="0.5" stroke-linejoin="round"/>
</svg>
