<svg width="551" height="504" viewBox="0 0 551 504" fill="none" xmlns="http://www.w3.org/2000/svg">
<path d="M157.59 1L0.530029 126.648H157.59V1Z" stroke="#FFCC2A" stroke-width="0.5" stroke-linejoin="round"/>
<path d="M79.0601 126.649H0.530029L79.0601 189.473V126.649Z" stroke="#FFCC2A" stroke-width="0.5" stroke-linejoin="round"/>
<path d="M0.530029 252.296V189.472H79.0601L0.530029 252.296Z" stroke="#FFCC2A" stroke-width="0.5" stroke-linejoin="round"/>
<path d="M157.59 252.296L79.0601 189.472H157.59V252.296Z" stroke="#FFCC2A" stroke-width="0.5" stroke-linejoin="round"/>
<path d="M157.59 126.649L79.0601 189.473H157.59V126.649Z" stroke="#FFCC2A" stroke-width="0.5" stroke-linejoin="round"/>
<path d="M157.59 126.649V189.473H236.12L157.59 126.649Z" stroke="#FFCC2A" stroke-width="0.5" stroke-linejoin="round"/>
<path d="M196.855 220.885H157.59V189.473L196.855 220.885Z" stroke="#FFCC2A" stroke-width="0.5" stroke-linejoin="round"/>
<path d="M157.59 220.884H196.855V252.296L157.59 220.884Z" stroke="#FFCC2A" stroke-width="0.5" stroke-linejoin="round"/>
<path d="M236.12 220.884H196.855V252.296L236.12 220.884Z" stroke="#FFCC2A" stroke-width="0.5" stroke-linejoin="round"/>
<path d="M236.12 189.473H196.855V220.885L236.12 189.473Z" stroke="#FFCC2A" stroke-width="0.5" stroke-linejoin="round"/>
<path d="M314.65 252.296L236.12 189.472V252.296H314.65Z" stroke="#FFCC2A" stroke-width="0.5" stroke-linejoin="round"/>
<path d="M236.12 126.649H314.65L236.12 189.473V126.649Z" stroke="#FFCC2A" stroke-width="0.5" stroke-linejoin="round"/>
<path d="M157.82 1L236.35 63.6654V2.58647" stroke="#FFCC2A" stroke-width="0.5" stroke-linejoin="round"/>
<path d="M157.59 63.8242H236.12V126.648L157.59 63.8242Z" stroke="#FFCC2A" stroke-width="0.5" stroke-linejoin="round"/>
<path d="M236.12 63.8242H314.65V126.648L236.12 63.8242Z" stroke="#FFCC2A" stroke-width="0.5" stroke-linejoin="round"/>
<path d="M314.65 1.00098L236.12 63.825V1.00098" stroke="#FFCC2A" stroke-width="0.5" stroke-linejoin="round"/>
<path d="M0.530029 252.296L79.0601 315.12V252.296H0.530029Z" stroke="#FFCC2A" stroke-width="0.5" stroke-linejoin="round"/>
<path d="M157.59 315.121H79.0601L157.59 377.945V315.121Z" stroke="#FFCC2A" stroke-width="0.5" stroke-linejoin="round"/>
<path d="M157.59 252.296L79.0601 315.12H157.59V252.296Z" stroke="#FFCC2A" stroke-width="0.5" stroke-linejoin="round"/>
<path d="M236.12 377.944H157.59L236.12 440.768V377.944Z" stroke="#FFCC2A" stroke-width="0.5" stroke-linejoin="round"/>
<path d="M314.65 440.769H236.12L314.65 503.593V440.769Z" stroke="#FFCC2A" stroke-width="0.5" stroke-linejoin="round"/>
<path d="M314.65 440.768L236.12 377.944V440.768H314.65Z" stroke="#FFCC2A" stroke-width="0.5" stroke-linejoin="round"/>
<path d="M236.12 252.296V315.12L157.59 252.296H236.12Z" stroke="#FFCC2A" stroke-width="0.5" stroke-linejoin="round"/>
<path d="M157.59 315.121H196.855L157.59 346.533V315.121Z" stroke="#FFCC2A" stroke-width="0.5" stroke-linejoin="round"/>
<path d="M90 79H129.265L90 110.412V79Z" stroke="#FFCC2A" stroke-width="0.5" stroke-linejoin="round"/>
<path d="M196.855 377.945L157.59 346.533H196.855V377.945Z" stroke="#FFCC2A" stroke-width="0.5" stroke-linejoin="round"/>
<path d="M236.12 346.533V377.945H196.855L236.12 346.533Z" stroke="#FFCC2A" stroke-width="0.5" stroke-linejoin="round"/>
<path d="M236.12 346.533L196.855 315.121V346.533H236.12Z" stroke="#FFCC2A" stroke-width="0.5" stroke-linejoin="round"/>
<path d="M314.65 315.121H236.12V377.945L314.65 315.121Z" stroke="#FFCC2A" stroke-width="0.5" stroke-linejoin="round"/>
<path d="M314.65 252.296L236.12 315.12H314.65V252.296Z" stroke="#FFCC2A" stroke-width="0.5" stroke-linejoin="round"/>
<path d="M314.65 252.296L393.18 315.12V252.296H314.65Z" stroke="#FFCC2A" stroke-width="0.5" stroke-linejoin="round"/>
<path d="M393.18 377.945V315.121H314.65L393.18 377.945Z" stroke="#FFCC2A" stroke-width="0.5" stroke-linejoin="round"/>
<path d="M393.18 315.121V377.945H471.71L393.18 315.121Z" stroke="#FFCC2A" stroke-width="0.5" stroke-linejoin="round"/>
<path d="M393.18 252.296H471.71V315.12L393.18 252.296Z" stroke="#FFCC2A" stroke-width="0.5" stroke-linejoin="round"/>
<path d="M314.65 440.768V377.944L393.18 440.768H314.65Z" stroke="#FFCC2A" stroke-width="0.5" stroke-linejoin="round"/>
<path d="M314.65 440.769H393.18L314.65 503.593V440.769Z" stroke="#FFCC2A" stroke-width="0.5" stroke-linejoin="round"/>
<path d="M471.71 377.944H393.18V440.768L471.71 377.944Z" stroke="#FFCC2A" stroke-width="0.5" stroke-linejoin="round"/>
<path d="M314.65 1.00098V63.825" stroke="#FFCC2A" stroke-width="0.5" stroke-linejoin="round"/>
<path d="M393.18 126.648H314.65V63.8242L393.18 126.648Z" stroke="#FFCC2A" stroke-width="0.5" stroke-linejoin="round"/>
<path d="M392.853 48.4982H455.677L392.853 127.028V48.4982Z" stroke="#FFCC2A" stroke-width="0.5" stroke-linejoin="round"/>
<path d="M393.18 189.473H314.65L393.18 126.649V189.473Z" stroke="#FFCC2A" stroke-width="0.5" stroke-linejoin="round"/>
<path d="M314.65 189.473H353.915V220.885L314.65 189.473Z" stroke="#FFCC2A" stroke-width="0.5" stroke-linejoin="round"/>
<path d="M353.915 220.885H314.65L353.915 252.297V220.885Z" stroke="#FFCC2A" stroke-width="0.5" stroke-linejoin="round"/>
<path d="M353.915 252.297V220.885L393.18 252.297H353.915Z" stroke="#FFCC2A" stroke-width="0.5" stroke-linejoin="round"/>
<path d="M393.18 220.885L353.915 189.473V220.885H393.18Z" stroke="#FFCC2A" stroke-width="0.5" stroke-linejoin="round"/>
<path d="M393.18 189.473V252.297H471.71L393.18 189.473Z" stroke="#FFCC2A" stroke-width="0.5" stroke-linejoin="round"/>
<path d="M393.18 189.473H471.71L393.18 126.649V189.473Z" stroke="#FFCC2A" stroke-width="0.5" stroke-linejoin="round"/>
<path d="M471 252.297H550.241L471.5 189.352L471 252.297Z" stroke="#FFCC2A" stroke-width="0.5" stroke-linejoin="round"/>
</svg>
