<svg width="942" height="649" viewBox="0 0 942 649" fill="none" xmlns="http://www.w3.org/2000/svg">
<path d="M199 1.0004L1 159.4L199 159.4L199 1.0004Z" stroke="#FFCC2A" stroke-width="0.5" stroke-linejoin="round"/>
<path d="M100 159.401L0.999997 159.401L100 238.601L100 159.401Z" stroke="#FFCC2A" stroke-width="0.5" stroke-linejoin="round"/>
<path d="M1 317.8L0.999997 238.6L100 238.6L1 317.8Z" stroke="#FFCC2A" stroke-width="0.5" stroke-linejoin="round"/>
<path d="M199 317.8L100 238.6L199 238.6L199 317.8Z" stroke="#FFCC2A" stroke-width="0.5" stroke-linejoin="round"/>
<path d="M199 159.401L100 238.601L199 238.601L199 159.401Z" stroke="#FFCC2A" stroke-width="0.5" stroke-linejoin="round"/>
<path d="M199 159.401L199 238.601L298 238.601L199 159.401Z" stroke="#FFCC2A" stroke-width="0.5" stroke-linejoin="round"/>
<path d="M248.5 278.201L199 278.201L199 238.601L248.5 278.201Z" stroke="#FFCC2A" stroke-width="0.5" stroke-linejoin="round"/>
<path d="M199 278.2L248.5 278.2L248.5 317.8L199 278.2Z" stroke="#FFCC2A" stroke-width="0.5" stroke-linejoin="round"/>
<path d="M298 278.2L248.5 278.2L248.5 317.8L298 278.2Z" stroke="#FFCC2A" stroke-width="0.5" stroke-linejoin="round"/>
<path d="M298 238.601L248.5 238.601L248.5 278.201L298 238.601Z" stroke="#FFCC2A" stroke-width="0.5" stroke-linejoin="round"/>
<path d="M397 317.8L298 238.6L298 317.8L397 317.8Z" stroke="#FFCC2A" stroke-width="0.5" stroke-linejoin="round"/>
<path d="M298 159.401L397 159.401L298 238.601L298 159.401Z" stroke="#FFCC2A" stroke-width="0.5" stroke-linejoin="round"/>
<path d="M199 1.0002L298 1.0002L298 80.2002L199 1.0002Z" stroke="#FFCC2A" stroke-width="0.5" stroke-linejoin="round"/>
<path d="M199 80.2004L298 80.2004L298 159.4L199 80.2004Z" stroke="#FFCC2A" stroke-width="0.5" stroke-linejoin="round"/>
<path d="M298 80.2004L397 80.2004L397 159.4L298 80.2004Z" stroke="#FFCC2A" stroke-width="0.5" stroke-linejoin="round"/>
<path d="M298 80.2007L397 1.00069L298 1.00069L298 80.2007Z" stroke="#FFCC2A" stroke-width="0.5" stroke-linejoin="round"/>
<path d="M0.999997 317.8L100 397L100 317.8L0.999997 317.8Z" stroke="#FFCC2A" stroke-width="0.5" stroke-linejoin="round"/>
<path d="M100 397.001L0.999997 397.001L100 476.201L100 397.001Z" stroke="#FFCC2A" stroke-width="0.5" stroke-linejoin="round"/>
<path d="M199 397.001L100 397.001L199 476.201L199 397.001Z" stroke="#FFCC2A" stroke-width="0.5" stroke-linejoin="round"/>
<path d="M199 317.8L100 397L199 397L199 317.8Z" stroke="#FFCC2A" stroke-width="0.5" stroke-linejoin="round"/>
<path d="M0.999993 476.201L1 634.601L199 476.201L0.999993 476.201Z" stroke="#FFCC2A" stroke-width="0.5" stroke-linejoin="round"/>
<path d="M298 476.2L199 476.2L298 555.4L298 476.2Z" stroke="#FFCC2A" stroke-width="0.5" stroke-linejoin="round"/>
<path d="M199 634.601L298 555.401L199 555.401L199 634.601Z" stroke="#FFCC2A" stroke-width="0.5" stroke-linejoin="round"/>
<path d="M397 555.401L298 555.401L397 634.601L397 555.401Z" stroke="#FFCC2A" stroke-width="0.5" stroke-linejoin="round"/>
<path d="M397 555.4L298 476.2L298 555.4L397 555.4Z" stroke="#FFCC2A" stroke-width="0.5" stroke-linejoin="round"/>
<path d="M298 317.8L298 397L199 317.8L298 317.8Z" stroke="#FFCC2A" stroke-width="0.5" stroke-linejoin="round"/>
<path d="M199 397.001L248.5 397.001L199 436.601L199 397.001Z" stroke="#FFCC2A" stroke-width="0.5" stroke-linejoin="round"/>
<path d="M248.5 476.201L199 436.601L248.5 436.601L248.5 476.201Z" stroke="#FFCC2A" stroke-width="0.5" stroke-linejoin="round"/>
<path d="M298 436.601L298 476.201L248.5 476.201L298 436.601Z" stroke="#FFCC2A" stroke-width="0.5" stroke-linejoin="round"/>
<path d="M298 436.601L248.5 397.001L248.5 436.601L298 436.601Z" stroke="#FFCC2A" stroke-width="0.5" stroke-linejoin="round"/>
<path d="M397 397.001L298 397.001L298 476.201L397 397.001Z" stroke="#FFCC2A" stroke-width="0.5" stroke-linejoin="round"/>
<path d="M397 317.8L298 397L397 397L397 317.8Z" stroke="#FFCC2A" stroke-width="0.5" stroke-linejoin="round"/>
<path d="M397 317.8L496 397L496 317.8L397 317.8Z" stroke="#FFCC2A" stroke-width="0.5" stroke-linejoin="round"/>
<path d="M496 476.201L496 397.001L397 397.001L496 476.201Z" stroke="#FFCC2A" stroke-width="0.5" stroke-linejoin="round"/>
<path d="M496 397.001L496 476.201L595 476.201L496 397.001Z" stroke="#FFCC2A" stroke-width="0.5" stroke-linejoin="round"/>
<path d="M496 317.8L595 317.8L595 397L496 317.8Z" stroke="#FFCC2A" stroke-width="0.5" stroke-linejoin="round"/>
<path d="M397 555.4L397 476.2L496 555.4L397 555.4Z" stroke="#FFCC2A" stroke-width="0.5" stroke-linejoin="round"/>
<path d="M397 555.401L496 555.401L397 634.601L397 555.401Z" stroke="#FFCC2A" stroke-width="0.5" stroke-linejoin="round"/>
<path d="M496 555.401L595 555.401L595 634.601L496 555.401Z" stroke="#FFCC2A" stroke-width="0.5" stroke-linejoin="round"/>
<path d="M595 476.2L496 476.2L496 555.4L595 476.2Z" stroke="#FFCC2A" stroke-width="0.5" stroke-linejoin="round"/>
<path d="M793 634.601L793 476.201L595 634.601L793 634.601Z" stroke="#FFCC2A" stroke-width="0.5" stroke-linejoin="round"/>
<path d="M694 317.8L694 397L595 397L694 317.8Z" stroke="#FFCC2A" stroke-width="0.5" stroke-linejoin="round"/>
<path d="M595 476.201L595 397.001L694 476.201L595 476.201Z" stroke="#FFCC2A" stroke-width="0.5" stroke-linejoin="round"/>
<path d="M793 476.201L694 476.201L793 397.001L793 476.201Z" stroke="#FFCC2A" stroke-width="0.5" stroke-linejoin="round"/>
<path d="M694 397L793 317.8L694 317.8L694 397Z" stroke="#FFCC2A" stroke-width="0.5" stroke-linejoin="round"/>
<path d="M496 1.00069L397 1.00069L397 80.2007L496 1.00069Z" stroke="#FFCC2A" stroke-width="0.5" stroke-linejoin="round"/>
<path d="M496 159.4L397 159.4L397 80.2004L496 159.4Z" stroke="#FFCC2A" stroke-width="0.5" stroke-linejoin="round"/>
<path d="M595 80.2004L595 159.4L496 80.2004L595 80.2004Z" stroke="#FFCC2A" stroke-width="0.5" stroke-linejoin="round"/>
<path d="M496 1.00069L595 1.00069L496 80.2007L496 1.00069Z" stroke="#FFCC2A" stroke-width="0.5" stroke-linejoin="round"/>
<path d="M496 238.601L397 238.601L496 159.401L496 238.601Z" stroke="#FFCC2A" stroke-width="0.5" stroke-linejoin="round"/>
<path d="M397 238.601L446.5 238.601L446.5 278.201L397 238.601Z" stroke="#FFCC2A" stroke-width="0.5" stroke-linejoin="round"/>
<path d="M446.5 278.201L397 278.201L446.5 317.801L446.5 278.201Z" stroke="#FFCC2A" stroke-width="0.5" stroke-linejoin="round"/>
<path d="M446.5 317.801L446.5 278.201L496 317.801L446.5 317.801Z" stroke="#FFCC2A" stroke-width="0.5" stroke-linejoin="round"/>
<path d="M496 278.201L446.5 238.601L446.5 278.201L496 278.201Z" stroke="#FFCC2A" stroke-width="0.5" stroke-linejoin="round"/>
<path d="M496 238.601L496 317.801L595 317.801L496 238.601Z" stroke="#FFCC2A" stroke-width="0.5" stroke-linejoin="round"/>
<path d="M496 238.601L595 238.601L496 159.401L496 238.601Z" stroke="#FFCC2A" stroke-width="0.5" stroke-linejoin="round"/>
<path d="M694 159.401L694 238.601L595 159.401L694 159.401Z" stroke="#FFCC2A" stroke-width="0.5" stroke-linejoin="round"/>
<path d="M595 238.601L694 317.801L694 238.601L595 238.601Z" stroke="#FFCC2A" stroke-width="0.5" stroke-linejoin="round"/>
<path d="M694 317.801L793 238.601L793 317.801L694 317.801Z" stroke="#FFCC2A" stroke-width="0.5" stroke-linejoin="round"/>
<path d="M793 238.601L694 159.401L793 159.401L793 238.601Z" stroke="#FFCC2A" stroke-width="0.5" stroke-linejoin="round"/>
<path d="M595 159.4L793 1.0004L595 1.00041L595 159.4Z" stroke="#FFCC2A" stroke-width="0.5" stroke-linejoin="round"/>
<path d="M743 648.6L941 490.2L743 490.2L743 648.6Z" stroke="#FFCC2A" stroke-width="0.5" stroke-linejoin="round"/>
<path d="M842 490.2L941 490.2L842 411L842 490.2Z" stroke="#FFCC2A" stroke-width="0.5" stroke-linejoin="round"/>
<path d="M941 331.8L941 411L842 411L941 331.8Z" stroke="#FFCC2A" stroke-width="0.5" stroke-linejoin="round"/>
<path d="M743 331.8L842 411L743 411L743 331.8Z" stroke="#FFCC2A" stroke-width="0.5" stroke-linejoin="round"/>
<path d="M743 490.2L842 411L743 411L743 490.2Z" stroke="#FFCC2A" stroke-width="0.5" stroke-linejoin="round"/>
<path d="M743 490.2L743 411L644 411L743 490.2Z" stroke="#FFCC2A" stroke-width="0.5" stroke-linejoin="round"/>
<path d="M693.5 371.4L743 371.4L743 411L693.5 371.4Z" stroke="#FFCC2A" stroke-width="0.5" stroke-linejoin="round"/>
<path d="M743 371.4L693.5 371.4L693.5 331.8L743 371.4Z" stroke="#FFCC2A" stroke-width="0.5" stroke-linejoin="round"/>
<path d="M644 371.4L693.5 371.4L693.5 331.8L644 371.4Z" stroke="#FFCC2A" stroke-width="0.5" stroke-linejoin="round"/>
<path d="M644 411L693.5 411L693.5 371.4L644 411Z" stroke="#FFCC2A" stroke-width="0.5" stroke-linejoin="round"/>
<path d="M545 331.8L644 411L644 331.8L545 331.8Z" stroke="#FFCC2A" stroke-width="0.5" stroke-linejoin="round"/>
<path d="M644 490.2L545 490.2L644 411L644 490.2Z" stroke="#FFCC2A" stroke-width="0.5" stroke-linejoin="round"/>
<path d="M743 648.6L644 648.6L644 569.4L743 648.6Z" stroke="#FFCC2A" stroke-width="0.5" stroke-linejoin="round"/>
<path d="M743 569.4L644 569.4L644 490.2L743 569.4Z" stroke="#FFCC2A" stroke-width="0.5" stroke-linejoin="round"/>
<path d="M644 569.4L545 569.4L545 490.2L644 569.4Z" stroke="#FFCC2A" stroke-width="0.5" stroke-linejoin="round"/>
<path d="M644 569.4L545 648.6L644 648.6L644 569.4Z" stroke="#FFCC2A" stroke-width="0.5" stroke-linejoin="round"/>
<path d="M941 331.8L842 252.6L842 331.8L941 331.8Z" stroke="#FFCC2A" stroke-width="0.5" stroke-linejoin="round"/>
<path d="M842 252.6L941 252.6L842 173.4L842 252.6Z" stroke="#FFCC2A" stroke-width="0.5" stroke-linejoin="round"/>
<path d="M743 252.6L842 252.6L743 173.4L743 252.6Z" stroke="#FFCC2A" stroke-width="0.5" stroke-linejoin="round"/>
<path d="M743 331.8L842 252.6L743 252.6L743 331.8Z" stroke="#FFCC2A" stroke-width="0.5" stroke-linejoin="round"/>
<path d="M941 173.4L941 15L743 173.4L941 173.4Z" stroke="#FFCC2A" stroke-width="0.5" stroke-linejoin="round"/>
<path d="M644 173.4L743 173.4L644 94.2002L644 173.4Z" stroke="#FFCC2A" stroke-width="0.5" stroke-linejoin="round"/>
<path d="M743 15L644 94.2L743 94.2L743 15Z" stroke="#FFCC2A" stroke-width="0.5" stroke-linejoin="round"/>
<path d="M545 94.2L644 94.2L545 15L545 94.2Z" stroke="#FFCC2A" stroke-width="0.5" stroke-linejoin="round"/>
<path d="M545 94.2002L644 173.4L644 94.2002L545 94.2002Z" stroke="#FFCC2A" stroke-width="0.5" stroke-linejoin="round"/>
<path d="M644 331.8L644 252.6L743 331.8L644 331.8Z" stroke="#FFCC2A" stroke-width="0.5" stroke-linejoin="round"/>
<path d="M743 252.6L693.5 252.6L743 213L743 252.6Z" stroke="#FFCC2A" stroke-width="0.5" stroke-linejoin="round"/>
<path d="M693.5 173.4L743 213L693.5 213L693.5 173.4Z" stroke="#FFCC2A" stroke-width="0.5" stroke-linejoin="round"/>
<path d="M644 213L644 173.4L693.5 173.4L644 213Z" stroke="#FFCC2A" stroke-width="0.5" stroke-linejoin="round"/>
<path d="M644 213L693.5 252.6L693.5 213L644 213Z" stroke="#FFCC2A" stroke-width="0.5" stroke-linejoin="round"/>
<path d="M545 252.6L644 252.6L644 173.4L545 252.6Z" stroke="#FFCC2A" stroke-width="0.5" stroke-linejoin="round"/>
<path d="M545 331.8L644 252.6L545 252.6L545 331.8Z" stroke="#FFCC2A" stroke-width="0.5" stroke-linejoin="round"/>
<path d="M545 331.8L446 252.6L446 331.8L545 331.8Z" stroke="#FFCC2A" stroke-width="0.5" stroke-linejoin="round"/>
<path d="M446 173.4L446 252.6L545 252.6L446 173.4Z" stroke="#FFCC2A" stroke-width="0.5" stroke-linejoin="round"/>
<path d="M446 252.6L446 173.4L347 173.4L446 252.6Z" stroke="#FFCC2A" stroke-width="0.5" stroke-linejoin="round"/>
<path d="M446 331.8L347 331.8L347 252.6L446 331.8Z" stroke="#FFCC2A" stroke-width="0.5" stroke-linejoin="round"/>
<path d="M545 94.2002L545 173.4L446 94.2002L545 94.2002Z" stroke="#FFCC2A" stroke-width="0.5" stroke-linejoin="round"/>
<path d="M545 94.2L446 94.2L545 15L545 94.2Z" stroke="#FFCC2A" stroke-width="0.5" stroke-linejoin="round"/>
<path d="M446 94.2L347 94.2L347 15L446 94.2Z" stroke="#FFCC2A" stroke-width="0.5" stroke-linejoin="round"/>
<path d="M347 173.4L446 173.4L446 94.2002L347 173.4Z" stroke="#FFCC2A" stroke-width="0.5" stroke-linejoin="round"/>
<path d="M149 15L149 173.4L347 15L149 15Z" stroke="#FFCC2A" stroke-width="0.5" stroke-linejoin="round"/>
<path d="M248 331.8L248 252.6L347 252.6L248 331.8Z" stroke="#FFCC2A" stroke-width="0.5" stroke-linejoin="round"/>
<path d="M347 173.4L347 252.6L248 173.4L347 173.4Z" stroke="#FFCC2A" stroke-width="0.5" stroke-linejoin="round"/>
<path d="M149 173.4L248 173.4L149 252.6L149 173.4Z" stroke="#FFCC2A" stroke-width="0.5" stroke-linejoin="round"/>
<path d="M248 252.6L149 331.8L248 331.8L248 252.6Z" stroke="#FFCC2A" stroke-width="0.5" stroke-linejoin="round"/>
<path d="M446 648.6L545 648.6L545 569.4L446 648.6Z" stroke="#FFCC2A" stroke-width="0.5" stroke-linejoin="round"/>
<path d="M446 490.2L545 490.2L545 569.4L446 490.2Z" stroke="#FFCC2A" stroke-width="0.5" stroke-linejoin="round"/>
<path d="M347 569.4L347 490.2L446 569.4L347 569.4Z" stroke="#FFCC2A" stroke-width="0.5" stroke-linejoin="round"/>
<path d="M446 648.6L347 648.6L446 569.4L446 648.6Z" stroke="#FFCC2A" stroke-width="0.5" stroke-linejoin="round"/>
<path d="M446 411L545 411L446 490.2L446 411Z" stroke="#FFCC2A" stroke-width="0.5" stroke-linejoin="round"/>
<path d="M545 411L495.5 411L495.5 371.4L545 411Z" stroke="#FFCC2A" stroke-width="0.5" stroke-linejoin="round"/>
<path d="M495.5 371.4L545 371.4L495.5 331.8L495.5 371.4Z" stroke="#FFCC2A" stroke-width="0.5" stroke-linejoin="round"/>
<path d="M495.5 331.8L495.5 371.4L446 331.8L495.5 331.8Z" stroke="#FFCC2A" stroke-width="0.5" stroke-linejoin="round"/>
<path d="M446 371.4L495.5 411L495.5 371.4L446 371.4Z" stroke="#FFCC2A" stroke-width="0.5" stroke-linejoin="round"/>
<path d="M446 411L446 331.8L347 331.8L446 411Z" stroke="#FFCC2A" stroke-width="0.5" stroke-linejoin="round"/>
<path d="M446 411L347 411L446 490.2L446 411Z" stroke="#FFCC2A" stroke-width="0.5" stroke-linejoin="round"/>
<path d="M248 490.2L248 411L347 490.2L248 490.2Z" stroke="#FFCC2A" stroke-width="0.5" stroke-linejoin="round"/>
<path d="M347 411L248 331.8L248 411L347 411Z" stroke="#FFCC2A" stroke-width="0.5" stroke-linejoin="round"/>
<path d="M248 331.8L149 411L149 331.8L248 331.8Z" stroke="#FFCC2A" stroke-width="0.5" stroke-linejoin="round"/>
<path d="M149 411L248 490.2L149 490.2L149 411Z" stroke="#FFCC2A" stroke-width="0.5" stroke-linejoin="round"/>
<path d="M347 490.2L149 648.6L347 648.6L347 490.2Z" stroke="#FFCC2A" stroke-width="0.5" stroke-linejoin="round"/>
</svg>
